<?xml version="1.0" encoding="UTF-8" standalone="no"?>
<!-- Created with Inkscape (http://www.inkscape.org/) -->

<svg
   width="1125"
   height="2436"
   viewBox="0 0 1125 2436"
   version="1.1"
   id="svg1"
   inkscape:version="1.3 (0e150ed6c4, 2023-07-21)"
   sodipodi:docname="Menu-mobile.svg"
   inkscape:export-filename="Menu-mobile.png"
   inkscape:export-xdpi="96"
   inkscape:export-ydpi="96"
   xmlns:inkscape="http://www.inkscape.org/namespaces/inkscape"
   xmlns:sodipodi="http://sodipodi.sourceforge.net/DTD/sodipodi-0.dtd"
   xmlns:xlink="http://www.w3.org/1999/xlink"
   xmlns="http://www.w3.org/2000/svg"
   xmlns:svg="http://www.w3.org/2000/svg">
  <sodipodi:namedview
     id="namedview1"
     pagecolor="#ffffff"
     bordercolor="#000000"
     borderopacity="0.25"
     inkscape:showpageshadow="2"
     inkscape:pageopacity="0.0"
     inkscape:pagecheckerboard="0"
     inkscape:deskcolor="#d1d1d1"
     inkscape:document-units="px"
     inkscape:zoom="0.213565"
     inkscape:cx="622.76121"
     inkscape:cy="1435.1602"
     inkscape:window-width="1920"
     inkscape:window-height="1019"
     inkscape:window-x="0"
     inkscape:window-y="0"
     inkscape:window-maximized="1"
     inkscape:current-layer="layer1" />
  <defs
     id="defs1">
    <linearGradient
       inkscape:collect="always"
       xlink:href="#linearGradient1"
       id="linearGradient2"
       x1="1916.8812"
       y1="384.36633"
       x2="1919.1781"
       y2="2.6062658"
       gradientUnits="userSpaceOnUse"
       gradientTransform="matrix(0.29276651,0,0,1.0268585,0.44053029,0.60650484)" />
    <linearGradient
       id="linearGradient1"
       inkscape:collect="always">
      <stop
         style="stop-color:#000848;stop-opacity:1;"
         offset="0"
         id="stop1" />
      <stop
         style="stop-color:#004246;stop-opacity:1;"
         offset="1"
         id="stop2" />
    </linearGradient>
    <linearGradient
       inkscape:collect="always"
       xlink:href="#linearGradient18"
       id="linearGradient19"
       x1="1920.3541"
       y1="1945.0215"
       x2="1920.3341"
       y2="1916.6724"
       gradientUnits="userSpaceOnUse"
       gradientTransform="matrix(0.29263791,0,0,1.9539515,0.54929774,-1501.1855)" />
    <linearGradient
       id="linearGradient18"
       inkscape:collect="always">
      <stop
         style="stop-color:#000000;stop-opacity:0.34999999;"
         offset="0"
         id="stop18" />
      <stop
         style="stop-color:#000000;stop-opacity:0;"
         offset="1"
         id="stop19" />
    </linearGradient>
    <linearGradient
       inkscape:collect="always"
       xlink:href="#linearGradient6"
       id="linearGradient9"
       gradientUnits="userSpaceOnUse"
       gradientTransform="matrix(2.8429572,0,0,2.8429572,2932.6993,484.10605)"
       x1="17.12995"
       y1="37.64072"
       x2="196.86539"
       y2="215.03328" />
    <linearGradient
       id="linearGradient6"
       inkscape:collect="always">
      <stop
         style="stop-color:#213aff;stop-opacity:1;"
         offset="0"
         id="stop5" />
      <stop
         style="stop-color:#7b00a1;stop-opacity:1;"
         offset="1"
         id="stop6" />
    </linearGradient>
    <linearGradient
       inkscape:collect="always"
       xlink:href="#linearGradient6"
       id="linearGradient24"
       gradientUnits="userSpaceOnUse"
       gradientTransform="matrix(2.8429572,0,0,2.8429572,1993.2033,484.10605)"
       x1="17.12995"
       y1="37.64072"
       x2="196.86539"
       y2="215.03328" />
    <filter
       inkscape:collect="always"
       style="color-interpolation-filters:sRGB"
       id="filter17"
       x="-0.075"
       y="-0.075"
       width="1.15"
       height="1.15">
      <feGaussianBlur
         inkscape:collect="always"
         stdDeviation="17.944386"
         id="feGaussianBlur17" />
    </filter>
    <linearGradient
       inkscape:collect="always"
       xlink:href="#linearGradient6"
       id="linearGradient25"
       gradientUnits="userSpaceOnUse"
       gradientTransform="matrix(2.8429572,0,0,2.8429572,1143.3748,484.10605)"
       x1="17.12995"
       y1="37.64072"
       x2="196.86539"
       y2="215.03328" />
    <filter
       inkscape:collect="always"
       style="color-interpolation-filters:sRGB"
       id="filter16"
       x="-0.075"
       y="-0.075"
       width="1.15"
       height="1.15">
      <feGaussianBlur
         inkscape:collect="always"
         stdDeviation="17.944386"
         id="feGaussianBlur16" />
    </filter>
    <linearGradient
       inkscape:collect="always"
       xlink:href="#linearGradient6"
       id="linearGradient26"
       gradientUnits="userSpaceOnUse"
       gradientTransform="matrix(2.8429572,0,0,2.8429572,268.87435,484.10605)"
       x1="17.12995"
       y1="37.64072"
       x2="196.86539"
       y2="215.03328" />
    <filter
       inkscape:collect="always"
       style="color-interpolation-filters:sRGB"
       id="filter15"
       x="-0.075"
       y="-0.075"
       width="1.15"
       height="1.15">
      <feGaussianBlur
         inkscape:collect="always"
         stdDeviation="17.944386"
         id="feGaussianBlur15" />
    </filter>
    <linearGradient
       inkscape:collect="always"
       xlink:href="#linearGradient6"
       id="linearGradient3"
       gradientUnits="userSpaceOnUse"
       gradientTransform="matrix(2.8429572,0,0,2.8429572,1993.2033,484.10605)"
       x1="17.12995"
       y1="37.64072"
       x2="196.86539"
       y2="215.03328" />
    <linearGradient
       inkscape:collect="always"
       xlink:href="#linearGradient6"
       id="linearGradient4"
       gradientUnits="userSpaceOnUse"
       gradientTransform="matrix(2.8429572,0,0,2.8429572,1143.3748,484.10605)"
       x1="17.12995"
       y1="37.64072"
       x2="196.86539"
       y2="215.03328" />
    <linearGradient
       inkscape:collect="always"
       xlink:href="#linearGradient6"
       id="linearGradient5"
       gradientUnits="userSpaceOnUse"
       gradientTransform="matrix(2.8429572,0,0,2.8429572,268.87435,484.10605)"
       x1="17.12995"
       y1="37.64072"
       x2="196.86539"
       y2="215.03328" />
  </defs>
  <g
     inkscape:label="Layer 1"
     inkscape:groupmode="layer"
     id="layer1">
    <rect
       style="font-variation-settings:'wdth' 109.9, 'wght' 700;fill:url(#linearGradient2);fill-opacity:1;stroke-width:3.1091"
       id="rect1"
       width="1124.3396"
       height="397.34256"
       x="0.4467873"
       y="0.66960841" />
    <rect
       style="font-variation-settings:'wdth' 109.9, 'wght' 700;fill:#000848;fill-opacity:1;stroke-width:6.81278"
       id="rect2"
       width="1124.3396"
       height="1907.8633"
       x="0.4467873"
       y="390.87585" />
    <rect
       style="font-variation-settings:'wdth' 109.9, 'wght' 700;fill:#1f1c36;fill-opacity:1;stroke-width:1.84651"
       id="rect3"
       width="1124.8694"
       height="140.08878"
       x="0.53109175"
       y="2297.5549" />
    <path
       style="fill:#ffffff;fill-opacity:1;stroke-width:0.385581"
       d="m 984.6653,2396.6937 c -0.2768,-0.086 -1.16,-0.4917 -1.9627,-0.9022 -1.032,-0.5281 -1.494,-0.8847 -1.5777,-1.2178 -0.2465,-0.9823 0.6888,-1.7082 1.3614,-1.0565 0.413,0.4002 2.3819,1.3116 3.3874,1.5687 1.292,0.3299 3.152,0.082 4.8723,-0.6471 0.8088,-0.3431 1.5155,-0.6821 1.571,-0.7531 0.057,-0.072 0.6105,-0.4755 1.2336,-0.8984 1.2623,-0.8563 3.8622,-3.3975 4.8217,-4.7127 l 0.6243,-0.8556 h -0.8731 c -1.0386,0 -2.0907,-0.2282 -4.3971,-0.9288 -3.3886,-1.0293 -4.1333,-1.5389 -3.6285,-2.482 0.2783,-0.5195 0.8058,-0.5193 1.8764,0 0.4654,0.2262 1.1632,0.4896 1.551,0.5853 0.3875,0.095 1.6108,0.3999 2.7181,0.6759 1.1076,0.276 2.4374,0.5609 2.9554,0.6332 l 0.9416,0.1328 0.8231,-1.4097 c 0.4529,-0.7752 0.9126,-1.4647 1.0216,-1.5321 0.1075,-0.067 0.1981,-0.2689 0.1981,-0.4472 0,-0.1771 0.1287,-0.4677 0.283,-0.6425 0.5178,-0.5817 1.5765,-2.8689 1.4004,-3.0255 -0.3595,-0.3203 -4.7819,-2.4557 -6.0225,-2.9079 -0.4374,-0.1603 -1.1573,-0.4706 -1.5996,-0.6916 -0.8303,-0.4145 -1.1086,-0.4027 -1.1086,0.049 0,0.1434 -0.2389,0.5233 -0.5311,0.8438 -1.6222,1.7805 -2.5297,2.6973 -2.6707,2.6973 -0.087,0 -0.3304,0.1897 -0.5402,0.4216 -0.2108,0.2318 -0.5417,0.5071 -0.7375,0.6119 -0.8727,0.467 -4.3743,1.5956 -5.3001,1.7082 -0.9767,0.1181 -1.0399,0.1645 -1.4616,1.0574 -0.5309,1.1234 -0.549,1.8581 -0.089,3.5866 0.3394,1.2737 0.3384,1.3178 -0.038,1.5935 -0.7101,0.5193 -1.1109,0.3467 -1.563,-0.673 -0.6342,-1.4309 -0.7191,-3.5589 -0.1897,-4.7567 l 0.4193,-0.9476 -0.4549,-0.1728 c -1.4867,-0.5653 -3.24742,-1.4776 -3.97462,-2.06 -1.0243,-0.8199 -2.4011,-2.1777 -2.4011,-2.3683 0,-0.076 -0.1581,-0.3152 -0.354,-0.5301 -1.28,-1.4114 -1.4602,-3.1086 -0.3299,-3.1086 0.3721,0 0.6525,0.2783 1.237,1.2288 1.4246,2.316 3.0165,3.681 5.52822,4.7403 1.952,0.8231 3.0513,0.8651 5.0602,0.1919 0.7938,-0.2659 1.6753,-0.5352 1.9591,-0.5986 0.2836,-0.063 0.782,-0.3441 1.1074,-0.6239 0.3255,-0.2798 0.6572,-0.509 0.7373,-0.5092 0.2024,-2e-4 1.7259,-1.545 2.5294,-2.5615 l 0.6614,-0.8366 -0.9521,-0.4215 c -0.524,-0.2315 -1.1839,-0.4758 -1.467,-0.5427 -0.283,-0.067 -1.0583,-0.35 -1.7226,-0.6289 -1.1145,-0.4679 -2.2566,-0.895 -5.7389,-2.1466 -0.7198,-0.2589 -1.8411,-0.7069 -2.4915,-0.9956 -0.6506,-0.2888 -1.3104,-0.5252 -1.46602,-0.5252 -0.156,0 -0.8416,-0.2353 -1.5243,-0.5224 -0.6828,-0.2872 -1.8352,-0.683 -2.5613,-0.879 -0.726,-0.1961 -1.9543,-0.5415 -2.7294,-0.7666 -0.7752,-0.2254 -1.8628,-0.5101 -2.4164,-0.6321 -0.5537,-0.1244 -1.8676,-0.4439 -2.9195,-0.7144 -2.4293,-0.6245 -7.7737,-1.6713 -9.4016,-1.8413 -0.6855,-0.072 -1.5691,-0.07 -1.9634,0 l -0.7164,0.135 v 1.7746 1.7749 l 1.0569,0.7868 c 1.2695,0.9455 1.5158,1.7329 0.6629,2.1217 -0.4461,0.2046 -0.6072,0.1729 -1.1206,-0.2066 l -0.5992,-0.4432 v 8.463 8.4631 h -3.8259 -3.8257 v -17.9208 -17.9211 h 3.8257 3.8259 v 5.6885 5.6885 l 2.5571,0.046 c 2.4231,0.044 4.4082,0.3287 6.905,0.9933 0.6091,0.1623 1.6058,0.3763 2.2149,0.4758 0.6091,0.099 1.9228,0.4131 2.9195,0.6969 0.9968,0.2835 2.1295,0.5661 2.5172,0.6276 0.6781,0.1076 4.0492,1.1434 6.1414,1.8871 0.5537,0.196 1.45962,0.5176 2.01352,0.713 0.5537,0.1961 1.6302,0.6148 2.392,0.9317 0.7618,0.3167 1.5014,0.576 1.6433,0.576 0.1413,0 0.9992,0.3171 1.9047,0.7047 1.8093,0.7744 2.193,0.8615 1.8215,0.4139 -0.3197,-0.3853 -0.194,-1.1245 0.2336,-1.3935 0.2492,-0.156 0.5456,-0.1434 1.082,0.053 0.9334,0.3376 1.0842,0.1434 1.0882,-1.3957 v -1.1156 l -1.5031,-0.6462 c -0.8267,-0.3557 -1.5843,-0.6465 -1.6836,-0.6465 -0.099,0 -0.8047,-0.2833 -1.5676,-0.6293 -0.763,-0.3462 -1.7946,-0.7578 -2.2931,-0.9147 -1.5033,-0.4733 -3.0719,-1.3415 -3.5115,-1.9441 -0.3207,-0.4396 -0.415,-0.8737 -0.415,-1.913 v -1.3443 l -1.15492,0.5537 c -0.6353,0.3044 -1.2404,0.5538 -1.3446,0.5538 -0.1033,0 -0.876,0.3169 -1.7152,0.7047 -0.8391,0.3875 -1.6188,0.7046 -1.7329,0.7046 -0.1138,0 -0.6542,0.2267 -1.2005,0.5035 -0.5463,0.2768 -1.2121,0.5035 -1.4788,0.5035 -0.5742,0 -0.9984,-0.4419 -0.9024,-0.9397 0.089,-0.466 1.2252,-1.2198 2.2555,-1.4972 0.451,-0.1223 1.341,-0.4837 1.9773,-0.805 0.6365,-0.3211 1.2642,-0.584 1.3954,-0.584 0.1307,0 0.7451,-0.2417 1.3647,-0.537 0.6199,-0.2954 1.668,-0.7334 2.3294,-0.9733 1.12152,-0.4069 1.23022,-0.5037 1.61102,-1.432 0.6492,-1.5828 1.2948,-2.4822 1.8847,-2.626 0.2954,-0.072 0.7934,-0.3437 1.1063,-0.6037 0.7089,-0.5889 0.9085,-0.5884 2.6526,0 0.7753,0.2636 1.7719,0.5925 2.2149,0.7304 0.443,0.1391 1.1906,0.4238 1.6612,0.6342 0.4708,0.2108 1.1503,0.4415 1.51,0.513 0.3602,0.072 1.4241,0.4318 2.3646,0.8005 0.9406,0.3686 1.8259,0.6703 1.9674,0.6703 0.1412,0 0.814,0.2264 1.495,0.5031 0.6808,0.2768 1.2737,0.4674 1.3174,0.424 0.042,-0.044 -0.063,-0.7709 -0.2381,-1.6157 -0.5148,-2.4928 -2.1986,-5.1294 -4.345,-6.803 -1.331,-1.0382 -5.3815,-2.1734 -7.7538,-2.1734 -3.7699,0 -8.25402,2.4804 -10.55662,5.8395 -0.7656,1.117 -2.5297,4.7907 -2.6589,5.5371 -0.093,0.5408 -1.3148,0.6934 -1.5088,0.1876 -0.4344,-1.1318 1.9311,-6.1782 3.9444,-8.4161 0.6684,-0.7428 3.3323,-2.773 4.24342,-3.2339 1.8067,-0.9138 3.2187,-1.3057 5.1607,-1.4333 2.1196,-0.1391 5.7056,0.1497 6.6508,0.5356 2.7188,1.1107 3.6956,1.6175 3.9178,2.0333 0.1054,0.1961 0.3182,0.3587 0.4725,0.3587 0.1539,0 0.4693,0.2492 0.7006,0.5538 0.2311,0.3047 0.6431,0.8019 0.9155,1.1055 0.4443,0.4944 0.6821,0.879 1.6962,2.7418 0.3871,0.7107 1.2259,3.9836 1.2259,4.7829 0,0.6243 0.059,0.6696 1.6281,1.269 0.8952,0.342 1.7065,0.6216 1.8027,0.6216 0.095,0 0.4109,0.1075 0.6997,0.2393 0.502,0.2287 1.3062,1.61 1.3062,2.2435 0,0.6022 -2.1615,7.5802 -2.459,7.9386 -0.116,0.1413 -0.6979,0.3962 -1.2927,0.5689 -0.5946,0.1729 -1.081,0.3945 -1.081,0.4925 0,0.3053 -1.4217,0.4611 -2.1552,0.2363 -0.6631,-0.2045 -0.7327,-0.1771 -1.3319,0.5054 -0.3479,0.396 -0.7246,0.8752 -0.8379,1.065 -0.1117,0.1897 -0.4986,0.7322 -0.8566,1.2052 l -0.6511,0.86 1.3998,0.6789 c 0.7698,0.3736 1.4639,0.6791 1.5421,0.6791 0.1771,0 2.7907,1.2218 4.3671,2.0416 0.646,0.3356 1.1955,0.58 1.2212,0.5427 0.2292,-0.3298 1.5309,-3.2164 1.5309,-3.3941 0,-0.1287 0.315,-1.1974 0.7002,-2.3783 1.2537,-3.8453 1.9438,-7.2789 2.2364,-11.1293 0.4868,-6.4021 -0.2631,-11.4743 -2.2851,-15.4537 -1.2536,-2.4677 -3.307,-3.8325 -5.1987,-3.4551 -1.3154,0.2625 -3.6564,1.253 -3.9315,1.6638 -0.067,0.099 -0.3846,0.1539 -0.7047,0.1159 -0.4689,-0.055 -0.595,-0.1771 -0.6472,-0.6325 -0.089,-0.7778 0.1792,-1.0367 2.0398,-1.9577 1.5744,-0.7796 1.6634,-0.7988 3.7454,-0.7963 2.349,0 3.0146,0.2397 4.5196,1.6093 1.6749,1.524 3.3943,5.8241 4.0363,10.0945 0.4171,2.7729 0.4211,7.5987 0,10.9464 -0.362,2.9433 -1.4619,7.7954 -2.3506,10.37 -0.3249,0.9414 -0.664,2.0036 -0.7534,2.3601 -0.089,0.3568 -0.4444,1.1483 -0.7889,1.7589 l -0.6269,1.1105 1.158,0.587 c 0.6367,0.323 1.4297,0.8224 1.762,1.11 0.3323,0.288 0.6557,0.5235 0.7187,0.5235 0.2387,0 1.3661,1.1386 1.874,1.8911 0.4109,0.6091 0.5284,1.0287 0.5284,1.8891 0,1.3738 -0.4734,2.2012 -1.6313,2.8523 -0.7572,0.4252 -1.1114,0.4771 -3.3828,0.4954 l -2.537,0.021 v -0.7046 -0.7048 l 2.0135,-0.1076 c 2.093,-0.1117 3.5299,-0.6026 3.7956,-1.2952 0.3285,-0.8556 -0.6606,-2.3656 -2.0294,-3.0981 -0.2342,-0.1265 -0.5517,-0.3538 -0.7061,-0.5081 -0.3183,-0.3184 -1.8541,-1.132 -2.137,-1.132 -0.1034,0 -0.5621,0.7211 -1.0207,1.6026 -0.4586,0.8815 -0.9218,1.657 -1.0293,1.7236 -0.1076,0.068 -0.194,0.2509 -0.194,0.4105 0,0.1582 -0.3256,0.7428 -0.7238,1.2969 -0.708,0.9855 -0.7135,1.0072 -0.2516,1.0102 0.7302,0 1.0144,0.284 0.941,0.9247 -0.065,0.5655 -0.1033,0.584 -1.323,0.6424 -1.0553,0.051 -1.2942,0.1308 -1.4928,0.5033 -0.4096,0.7692 -2.2983,3.0167 -3.5225,4.1924 -2.3831,2.2878 -4.4369,3.6186 -6.9925,4.5303 -0.8427,0.3007 -4.6786,0.3616 -5.5626,0.089 z m 10.7567,-25.2311 c 0.3854,-0.5813 0.9819,-1.4525 1.3256,-1.9359 0.3436,-0.4831 0.5954,-0.9077 0.5595,-0.9435 -0.1433,-0.1434 -2.0188,-0.8961 -2.2383,-0.898 -0.1307,0 -0.7107,-0.2235 -1.292,-0.494 l -1.0571,-0.4923 v 0.7932 c 0,0.4364 -0.1118,1.2127 -0.2495,1.7255 -0.2975,1.113 -0.7809,1.3738 -2.2673,1.2231 l -1.007,-0.1012 1.2673,0.5819 c 0.6969,0.3198 1.618,0.6759 2.0471,0.7917 0.4291,0.1139 1.0367,0.3437 1.3504,0.5075 0.3138,0.1623 0.6357,0.2981 0.7154,0.2988 0.08,0 0.4603,-0.4744 0.8459,-1.0559 z m 8.0033,-5.0001 c 0.074,-0.2677 0.4674,-1.5324 0.8746,-2.8105 0.6654,-2.0888 0.9414,-3.646 0.6909,-3.8965 -0.116,-0.1181 -4.0473,-1.4955 -5.2236,-1.831 -0.4982,-0.1433 -1.4953,-0.4997 -2.2151,-0.7938 -0.7198,-0.2943 -1.7122,-0.6264 -2.2056,-0.7381 -0.4931,-0.1097 -1.1729,-0.3287 -1.5102,-0.4822 -1.2246,-0.5581 -2.1789,-0.9088 -2.4726,-0.9088 -0.1644,0 -1.0822,-0.3044 -2.0392,-0.6765 -2.7382,-1.0648 -3.8538,-1.3595 -3.8538,-1.0173 0,0.156 -0.3171,0.9692 -0.7046,1.8083 -0.3875,0.8392 -0.7048,1.6227 -0.7048,1.7409 0,0.116 -0.2024,0.6197 -0.4493,1.1148 l -0.4495,0.8996 0.6004,0.4803 c 0.3304,0.2644 0.691,0.4839 0.8017,0.4883 0.1096,0 0.564,0.1835 1.0069,0.3968 0.443,0.2145 0.9182,0.3924 1.0563,0.396 0.1392,0 0.9374,0.3238 1.7766,0.7116 0.8391,0.3875 1.6485,0.7046 1.7985,0.7046 0.1497,0 0.9591,0.3173 1.7982,0.7051 0.839,0.3875 1.621,0.7046 1.7373,0.7046 0.116,0 0.8502,0.2718 1.6311,0.604 0.7808,0.3321 1.4428,0.6041 1.471,0.6041 0.093,0 -0.3177,-1.8742 -0.8279,-3.7793 -0.275,-1.0262 -0.4715,-2.1137 -0.4367,-2.416 0.055,-0.474 0.1645,-0.5588 0.8014,-0.6117 0.8274,-0.07 0.7443,-0.2108 1.2813,2.1759 0.6597,2.9307 1.412,5.5063 1.6294,5.5788 0.2985,0.099 0.038,-1.4893 -0.6188,-3.7717 -0.2821,-0.9802 -0.5128,-2.0034 -0.5128,-2.2735 0,-0.6439 0.4738,-1.0194 1.0907,-0.8649 0.5189,0.1308 0.8501,0.9627 1.3369,3.3602 0.1223,0.6007 0.4069,1.8337 0.6336,2.7403 0.3671,1.4679 0.4809,1.6821 1.0413,1.9583 0.774,0.3814 0.9939,0.3247 1.1664,-0.3007 z m -110.16552,20.2614 c -5.31408,-1.0116 -9.01454,-3.9282 -10.6435,-8.3887 l -0.5427,-1.4862 -0.0569,-13.1386 -0.0569,-13.1387 h 3.82529 3.82528 l 0.0569,12.2372 0.0569,12.237 0.65843,1.3373 c 1.1434,2.322 3.0616,3.5417 5.8721,3.7342 3.0851,0.2123 5.7027,-1.1488 7.0219,-3.6494 l 0.5425,-1.0287 0.057,-12.4337 0.057,-12.4339 h 3.9303 3.9301 l -0.063,12.9374 -0.063,12.9372 -0.5471,1.611 c -1.3981,4.1162 -4.8382,7.1954 -9.3582,8.3754 -2.0757,0.5421 -6.4073,0.6905 -8.5041,0.2912 z m 33.5785,0.076 c -3.5253,-0.5172 -6.083,-1.6696 -8.0411,-3.6227 -1.8655,-1.8606 -2.7316,-3.7814 -3.1053,-6.8871 l -0.1412,-1.1623 3.7938,0.055 3.7939,0.055 0.1476,0.8691 c 0.2667,1.5638 1.3937,2.9349 2.9948,3.6427 3.1289,1.3835 7.7273,0.6812 9.2432,-1.4118 1.5723,-2.1702 0.6016,-4.5061 -2.3316,-5.6122 -0.6511,-0.2454 -2.8774,-0.8849 -4.9472,-1.4208 -5.5527,-1.438 -7.7859,-2.5073 -9.7145,-4.6522 -1.4297,-1.5904 -1.821,-2.8234 -1.8126,-5.7111 0,-2.0215 0.08,-2.6036 0.4601,-3.5625 1.347,-3.4062 4.7801,-5.9966 9.1334,-6.8912 1.9804,-0.4071 5.7456,-0.4126 7.7692,-0.021 2.3305,0.4619 5.0389,1.8615 6.5606,3.3901 1.7192,1.7272 2.945,4.4379 2.945,6.513 v 0.6623 h -3.7026 -3.7028 l -0.1265,-0.6677 c -0.1813,-0.971 -1.0626,-2.2204 -1.9874,-2.82 -2.3536,-1.5261 -7.3233,-1.0692 -8.8007,0.8092 -1.0236,1.3011 -1.0082,3.015 0.036,4.206 0.9517,1.0838 2.1912,1.5978 6.4412,2.6708 2.1396,0.5399 4.4584,1.2114 5.1527,1.4917 3.084,1.2458 5.1156,2.9931 6.2611,5.3848 0.6646,1.3878 0.7293,1.6849 0.7983,3.6668 0.061,1.7573 0,2.4101 -0.3414,3.5237 -1.229,4.0349 -4.691,6.6346 -9.8762,7.4159 -2.0822,0.314 -5.0621,0.3473 -6.9044,0.076 z M 815.32352,2368.492 v -17.9209 h 3.92649 3.92649 v 17.9209 17.921 h -3.92649 -3.92649 z m 12.8869,0 v -17.9209 h 3.82584 3.82577 v 14.8 14.7998 h 7.6516 7.65153 v 3.121 3.1211 h -11.47737 -11.47737 z m 26.78066,0 v -17.9209 h 3.92649 3.92649 v 14.8 14.7998 h 7.65141 7.65162 v 3.121 3.1211 h -11.5779 -11.57811 z m 157.66292,0 v -17.9255 l 3.4597,0.057 3.4595,0.055 7.6655,11.1693 7.6656,11.1693 0.053,-11.2199 0.053,-11.2194 h 3.9246 3.9248 v 17.9208 17.9208 h -3.4068 -3.4072 l -7.7178,-11.175 -7.7183,-11.1751 -0.053,11.1751 -0.053,11.175 h -3.9248 -3.9248 z m -45.38452,14.9897 c -0.2319,-0.6045 -0.1181,-1.0078 0.5832,-2.0989 0.3877,-0.6022 1.0546,-1.8221 1.4822,-2.7114 0.7154,-1.4896 0.7946,-1.8308 1.0063,-4.3351 0.1265,-1.4951 0.2296,-3.3119 0.2294,-4.0372 -2e-4,-1.3975 0.2045,-1.8023 0.906,-1.8023 0.703,0 0.906,0.4046 0.9043,1.8023 0,2.0331 -0.3656,5.6722 -0.7171,7.1867 -0.5568,2.4017 -2.9161,6.3143 -3.8073,6.3143 -0.2558,0 -0.5197,-0.1434 -0.587,-0.3184 z m 19.26242,-7.9301 c -0.4685,-0.2124 -0.9669,-0.4837 -1.1075,-0.602 -0.1413,-0.1181 -0.5048,-0.4016 -0.8092,-0.63 -0.727,-0.545 -0.7692,-1.505 -0.08,-1.8189 0.4116,-0.1856 0.6178,-0.1054 1.5605,0.6078 1.1874,0.9003 1.9981,1.1413 3.1957,0.9499 0.9005,-0.1434 1.4754,0.2543 1.3747,0.9523 -0.1371,0.9509 -2.5388,1.2653 -4.1346,0.5409 z m -22.20362,-1.1567 c -0.3163,-0.1181 -1.1637,-0.4879 -3.0203,-1.3266 -0.6091,-0.2748 -1.416,-0.7645 -1.7934,-1.0882 -0.5716,-0.4904 -0.6631,-0.6785 -0.5497,-1.1297 0.1898,-0.7571 1.0917,-0.7286 2.2543,0.072 0.4896,0.3369 1.4571,0.8261 2.1506,1.088 2.2094,0.8332 2.3681,0.9344 2.3681,1.5134 0,0.8543 -0.5429,1.1904 -1.4096,0.872 z"
       id="path138" />
    <text
       xml:space="preserve"
       style="font-style:normal;font-variant:normal;font-weight:600;font-stretch:normal;font-size:46.1422px;line-height:0px;font-family:Archivo;-inkscape-font-specification:'Archivo, Semi-Bold';font-variant-ligatures:normal;font-variant-caps:normal;font-variant-numeric:normal;font-variant-east-asian:normal;text-align:center;text-anchor:middle;fill:#ffffff;fill-opacity:1;stroke-width:4.07854"
       x="179.28064"
       y="2380.1736"
       id="text1394"><tspan
         sodipodi:role="line"
         id="tspan1394"
         x="179.28064"
         y="2380.1736"
         style="font-style:normal;font-variant:normal;font-weight:600;font-stretch:normal;font-size:34.6667px;font-family:Archivo;-inkscape-font-specification:'Archivo, Semi-Bold';font-variant-ligatures:normal;font-variant-caps:normal;font-variant-numeric:normal;font-variant-east-asian:normal;stroke-width:4.07854">Post Creator</tspan></text>
    <rect
       style="font-variation-settings:'wdth' 109.9, 'wght' 700;fill:url(#linearGradient19);stroke-width:1.15857"
       id="rect18"
       width="1123.8458"
       height="55.199516"
       x="0.55556798"
       y="2242.6052" />
    <text
       xml:space="preserve"
       style="font-style:normal;font-variant:normal;font-weight:normal;font-stretch:normal;font-size:85.867px;line-height:0px;font-family:Archivo;-inkscape-font-specification:'Archivo, @wght=700,wdth=109.9';font-variant-ligatures:normal;font-variant-caps:normal;font-variant-numeric:normal;font-variant-east-asian:normal;font-variation-settings:'wdth' 109.9, 'wght' 700;text-align:center;text-anchor:middle;fill:#d90baa;stroke-width:2.66438"
       x="451.72012"
       y="389.44687"
       id="text2"
       transform="scale(0.9340924,1.0705579)"><tspan
         id="tspan2"
         style="font-style:normal;font-variant:normal;font-weight:normal;font-stretch:normal;font-size:85.867px;font-family:Archivo;-inkscape-font-specification:'Archivo, @wght=700,wdth=109.9';font-variant-ligatures:normal;font-variant-caps:normal;font-variant-numeric:normal;font-variant-east-asian:normal;font-variation-settings:'wdth' 109.9, 'wght' 700;fill:#ffffff;fill-opacity:1;stroke-width:2.66438"
         x="451.72012"
         y="389.44687"
         sodipodi:role="line">Welcome back</tspan></text>
    <g
       id="g9"
       transform="translate(0,40)">
      <g
         id="g3"
         transform="translate(0,7.1432494)">
        <text
           xml:space="preserve"
           style="font-style:normal;font-variant:normal;font-weight:600;font-stretch:normal;font-size:64px;line-height:0px;font-family:Archivo;-inkscape-font-specification:'Archivo, Semi-Bold';font-variant-ligatures:normal;font-variant-caps:normal;font-variant-numeric:normal;font-variant-east-asian:normal;text-align:center;text-anchor:middle;fill:#ffffff;fill-opacity:1;stroke-width:5.657"
           x="380.28949"
           y="115.04243"
           id="text3"><tspan
             sodipodi:role="line"
             id="tspan3"
             x="380.28949"
             y="115.04243">User 20215</tspan></text>
        <text
           xml:space="preserve"
           style="font-style:normal;font-variant:normal;font-weight:600;font-stretch:normal;font-size:64px;line-height:0px;font-family:Archivo;-inkscape-font-specification:'Archivo, Semi-Bold';font-variant-ligatures:normal;font-variant-caps:normal;font-variant-numeric:normal;font-variant-east-asian:normal;text-align:center;text-anchor:middle;fill:#ffffff;fill-opacity:1;stroke-width:5.657"
           x="360.28949"
           y="155.04243"
           id="text4"><tspan
             sodipodi:role="line"
             id="tspan4"
             x="360.28949"
             y="155.04243"
             style="font-style:normal;font-variant:normal;font-weight:600;font-stretch:normal;font-size:32px;font-family:Archivo;-inkscape-font-specification:'Archivo, Semi-Bold';font-variant-ligatures:normal;font-variant-caps:normal;font-variant-numeric:normal;font-variant-east-asian:normal;fill:#ffffff;fill-opacity:0.5">example@mail.com</tspan></text>
      </g>
      <g
         id="g2"
         transform="matrix(0.65045099,0,0,0.65045099,-352.41049,-155.26434)">
        <path
           style="font-variation-settings:'wdth' 109.9, 'wght' 700;opacity:0.25;fill:#ffffff;stroke-width:3.42214"
           id="path2"
           sodipodi:type="arc"
           sodipodi:cx="724.80951"
           sodipodi:cy="427.21439"
           sodipodi:rx="99.57399"
           sodipodi:ry="99.57399"
           sodipodi:start="0.58416807"
           sodipodi:end="0.58326037"
           sodipodi:arc-type="slice"
           d="M 807.87126,482.13 A 99.57399,99.57399 0 0 1 669.91275,510.2886 99.57399,99.57399 0 0 1 641.72284,372.33648 99.57399,99.57399 0 0 1 779.66856,344.11527 99.57399,99.57399 0 0 1 807.92108,482.05458 L 724.80951,427.21439 Z" />
        <path
           d="m 724.80949,427.2144 q -12.8796,0 -22.0514,-9.17185 -9.1719,-9.17184 -9.1719,-22.05147 0,-12.87961 9.1719,-22.05145 9.1718,-9.17185 22.0514,-9.17185 12.8796,0 22.0514,9.17185 9.1719,9.17184 9.1719,22.05145 0,12.87963 -9.1719,22.05147 -9.1718,9.17185 -22.0514,9.17185 z m -62.4466,46.83497 v -6.24466 q 0,-6.63496 3.415,-12.19661 3.415,-5.56165 9.0743,-8.48884 12.099,-6.04951 24.5883,-9.07427 12.4894,-3.02477 25.369,-3.02477 12.8796,0 25.369,3.02477 12.4893,3.02476 24.5883,9.07427 5.6593,2.92719 9.0743,8.48884 3.415,5.56165 3.415,12.19661 v 6.24466 q 0,6.4398 -4.5859,11.02573 -4.586,4.58592 -11.0258,4.58592 h -93.6698 q -6.4398,0 -11.0258,-4.58592 -4.5859,-4.58593 -4.5859,-11.02573 z m 15.6117,0 h 93.6698 v -6.24466 q 0,-2.1466 -1.0732,-3.90292 -1.0733,-1.75631 -2.8296,-2.73204 -10.5379,-5.26893 -21.2709,-7.90339 -10.733,-2.63448 -21.6612,-2.63448 -10.9282,0 -21.6612,2.63448 -10.733,2.63446 -21.2709,7.90339 -1.7563,0.97573 -2.8296,2.73204 -1.0732,1.75632 -1.0732,3.90292 z m 46.8349,-62.44663 q 6.4399,0 11.0257,-4.58592 4.5859,-4.58593 4.5859,-11.02574 0,-6.4398 -4.5859,-11.02572 -4.5858,-4.58593 -11.0257,-4.58593 -6.4399,0 -11.0257,4.58593 -4.5859,4.58592 -4.5859,11.02572 0,6.43981 4.5859,11.02574 4.5858,4.58592 11.0257,4.58592 z m 0,-15.61166 z m 0,78.05829 z"
           id="path1-1"
           style="fill:#ffffff;fill-opacity:1;stroke-width:0.195146" />
      </g>
    </g>
    <g
       id="g8"
       transform="translate(0,124)">
      <g
         id="g6"
         transform="translate(0,-20)">
        <g
           id="g21"
           transform="matrix(0.55072039,0,0,0.55072039,-978.55408,606.18157)">
          <rect
             style="opacity:0.25;fill:url(#linearGradient9);stroke-width:4.26444"
             id="rect8"
             width="574.22034"
             height="574.22034"
             x="2948.603"
             y="556.22949"
             ry="107.88519" />
          <text
             xml:space="preserve"
             style="font-style:normal;font-variant:normal;font-weight:normal;font-stretch:normal;font-size:170.667px;line-height:0px;font-family:Archivo;-inkscape-font-specification:'Archivo, @wght=700,wdth=109.9';font-variant-ligatures:normal;font-variant-caps:normal;font-variant-numeric:normal;font-variant-east-asian:normal;font-variation-settings:'wdth' 109.9, 'wght' 700;text-align:center;text-anchor:middle;fill:#d90baa;stroke-width:5.29565"
             x="3464.1038"
             y="800.81317"
             id="text17"
             transform="scale(0.9340924,1.0705579)"><tspan
               id="tspan17"
               style="font-style:normal;font-variant:normal;font-weight:normal;font-stretch:normal;font-size:170.667px;font-family:Archivo;-inkscape-font-specification:'Archivo, @wght=700,wdth=109.9';font-variant-ligatures:normal;font-variant-caps:normal;font-variant-numeric:normal;font-variant-east-asian:normal;font-variation-settings:'wdth' 109.9, 'wght' 700;opacity:0.5;fill:#ffffff;fill-opacity:1;stroke-width:5.29565"
               x="3464.1038"
               y="800.81317"
               sodipodi:role="line">...</tspan></text>
        </g>
        <g
           id="g22"
           transform="matrix(0.55072039,0,0,0.55072039,-942.75971,606.18157)">
          <rect
             style="fill:url(#linearGradient3);stroke-width:4.26444;filter:url(#filter17)"
             id="rect17"
             width="574.22034"
             height="574.22034"
             x="2009.1072"
             y="556.22949"
             ry="107.88519" />
          <rect
             style="fill:url(#linearGradient24);stroke-width:4.26444"
             id="rect7"
             width="574.22034"
             height="574.22034"
             x="2009.1072"
             y="556.22949"
             ry="107.88519" />
          <path
             d="m 2296.2173,999.69818 q -7.3836,0 -12.3784,-4.99479 -4.9948,-4.99478 -4.9948,-12.37837 v -69.49268 q 0,-7.3836 4.9948,-12.37838 4.9948,-4.99479 12.3784,-4.99479 7.3836,0 12.3784,4.99479 4.9948,4.99478 4.9948,12.37838 v 17.37316 h 121.6122 q 7.3834,0 12.3782,4.9948 4.9948,4.99478 4.9948,12.37837 0,7.38361 -4.9948,12.37839 -4.9948,4.99479 -12.3782,4.99479 h -121.6122 v 17.37317 q 0,7.38359 -4.9948,12.37837 -4.9948,4.99479 -12.3784,4.99479 z m -138.9854,-34.74633 q -7.3834,0 -12.3782,-4.99479 -4.9948,-4.99478 -4.9948,-12.37839 0,-7.38359 4.9948,-12.37837 4.9948,-4.9948 12.3782,-4.9948 h 69.4928 q 7.3836,0 12.3784,4.9948 4.9948,4.99478 4.9948,12.37837 0,7.38361 -4.9948,12.37839 -4.9948,4.99479 -12.3784,4.99479 z m 69.4928,-69.49268 q -7.3836,0 -12.3784,-4.99479 -4.9948,-4.99478 -4.9948,-12.37839 v -17.37316 h -52.1196 q -7.3834,0 -12.3782,-4.9948 -4.9948,-4.99477 -4.9948,-12.37837 0,-7.3836 4.9948,-12.37837 4.9948,-4.9948 12.3782,-4.9948 h 52.1196 v -17.37316 q 0,-7.38361 4.9948,-12.37839 4.9948,-4.99479 12.3784,-4.99479 7.3836,0 12.3784,4.99479 4.9948,4.99478 4.9948,12.37839 v 69.49266 q 0,7.38361 -4.9948,12.37839 -4.9948,4.99479 -12.3784,4.99479 z m 69.4926,-34.74634 q -7.3836,0 -12.3784,-4.9948 -4.9948,-4.99477 -4.9948,-12.37837 0,-7.3836 4.9948,-12.37837 4.9948,-4.9948 12.3784,-4.9948 h 138.9854 q 7.3834,0 12.3782,4.9948 4.9948,4.99477 4.9948,12.37837 0,7.3836 -4.9948,12.37837 -4.9948,4.9948 -12.3782,4.9948 z m 69.4926,-69.49268 q -7.3836,0 -12.3784,-4.99479 -4.9948,-4.99478 -4.9948,-12.37838 V 704.3543 q 0,-7.38359 4.9948,-12.37837 4.9948,-4.99479 12.3784,-4.99479 7.3836,0 12.3784,4.99479 4.9948,4.99478 4.9948,12.37837 v 17.37317 h 52.1196 q 7.3834,0 12.3782,4.99479 4.9948,4.99478 4.9948,12.37839 0,7.38359 -4.9948,12.37837 -4.9948,4.9948 -12.3782,4.9948 h -52.1196 v 17.37316 q 0,7.3836 -4.9948,12.37838 -4.9948,4.99479 -12.3784,4.99479 z m -208.478,-34.74633 q -7.3834,0 -12.3782,-4.9948 -4.9948,-4.99478 -4.9948,-12.37837 0,-7.38361 4.9948,-12.37839 4.9948,-4.99479 12.3782,-4.99479 h 138.9854 q 7.3836,0 12.3784,4.99479 4.9948,4.99478 4.9948,12.37839 0,7.38359 -4.9948,12.37837 -4.9948,4.9948 -12.3784,4.9948 z"
             id="path1"
             style="fill:#ffffff;fill-opacity:1;stroke-width:0.43433" />
        </g>
      </g>
      <g
         id="g7">
        <g
           id="g23"
           transform="matrix(0.55072039,0,0,0.55072039,6.863319,138.8754)">
          <rect
             style="fill:url(#linearGradient4);stroke-width:4.26444;filter:url(#filter16)"
             id="rect16"
             width="574.22034"
             height="574.22034"
             x="1159.2787"
             y="556.22949"
             ry="107.88519" />
          <rect
             style="fill:url(#linearGradient25);stroke-width:4.26444"
             id="rect6"
             width="574.22034"
             height="574.22034"
             x="1159.2787"
             y="556.22949"
             ry="107.88519" />
          <path
             d="m 1339.0795,986.41886 q -14.755,0 -25.2625,-10.5073 -10.5073,-10.50744 -10.5073,-25.26248 v -71.53962 q 0,-14.75504 10.5073,-25.26239 10.5075,-10.50739 25.2625,-10.50739 14.755,0 25.2624,10.50739 10.5074,10.50735 10.5074,25.26239 v 71.53962 q 0,14.75504 -10.5074,25.26248 -10.5074,10.5073 -25.2624,10.5073 z m 107.3094,0 q -14.755,0 -25.2624,-10.5073 -10.5074,-10.50744 -10.5074,-25.26248 V 736.03027 q 0,-14.75505 10.5074,-25.26242 10.5074,-10.50738 25.2624,-10.50738 14.755,0 25.2624,10.50738 10.5074,10.50737 10.5074,25.26242 v 214.61881 q 0,14.75504 -10.5074,25.26248 -10.5074,10.5073 -25.2624,10.5073 z m 107.3094,0 q -14.755,0 -25.2624,-10.5073 -10.5074,-10.50744 -10.5074,-25.26248 V 825.45476 q 0,-14.75503 10.5074,-25.26241 10.5074,-10.50738 25.2624,-10.50738 14.755,0 25.2625,10.50738 10.5073,10.50738 10.5073,25.26241 v 125.19432 q 0,14.75504 -10.5073,25.26248 -10.5075,10.5073 -25.2625,10.5073 z"
             id="path1-0"
             style="fill:#ffffff;fill-opacity:1;stroke-width:0.447123" />
        </g>
        <g
           id="g20"
           transform="matrix(0.55072039,0,0,0.55072039,6.863319,138.8754)">
          <rect
             style="fill:url(#linearGradient5);stroke-width:4.26444;filter:url(#filter15)"
             id="rect15"
             width="574.22034"
             height="574.22034"
             x="284.77838"
             y="556.22949"
             ry="107.88519" />
          <rect
             style="fill:url(#linearGradient26);stroke-width:4.26444"
             id="rect1-3"
             width="574.22034"
             height="574.22034"
             x="284.77838"
             y="556.22949"
             ry="107.88519" />
          <path
             d="M 556.61407,858.61418 H 480.2415 q -6.49165,0 -10.88309,-4.39143 -4.39139,-4.39142 -4.39139,-10.88308 0,-6.49166 4.39139,-10.88309 4.39144,-4.39142 10.88309,-4.39142 h 76.37257 v -76.37254 q 0,-6.49166 4.39139,-10.88308 4.39144,-4.39142 10.88309,-4.39142 6.49165,0 10.88309,4.39142 4.39139,4.39142 4.39139,10.88308 v 76.37254 h 76.37257 q 6.49165,0 10.88309,4.39142 4.39139,4.39143 4.39139,10.88309 0,6.49166 -4.39139,10.88308 -4.39144,4.39143 -10.88309,4.39143 h -76.37257 v 76.37253 q 0,6.49167 -4.39139,10.88311 -4.39144,4.39139 -10.88309,4.39139 -6.49165,0 -10.88309,-4.39139 -4.39139,-4.39144 -4.39139,-10.88311 z"
             id="path1-6"
             style="fill:#ffffff;fill-opacity:1;stroke-width:0.381863" />
        </g>
      </g>
    </g>
  </g>
</svg>
