<?xml version="1.0" encoding="UTF-8" standalone="no"?>
<!-- Created with Inkscape (http://www.inkscape.org/) -->

<svg
   width="3840"
   height="2160"
   viewBox="0 0 3840 2160"
   version="1.1"
   id="svg1"
   xml:space="preserve"
   inkscape:version="1.3 (0e150ed6c4, 2023-07-21)"
   sodipodi:docname="Menu.svg"
   inkscape:export-filename="../Menu.png"
   inkscape:export-xdpi="96"
   inkscape:export-ydpi="96"
   xmlns:inkscape="http://www.inkscape.org/namespaces/inkscape"
   xmlns:sodipodi="http://sodipodi.sourceforge.net/DTD/sodipodi-0.dtd"
   xmlns:xlink="http://www.w3.org/1999/xlink"
   xmlns="http://www.w3.org/2000/svg"
   xmlns:svg="http://www.w3.org/2000/svg"><sodipodi:namedview
     id="namedview1"
     pagecolor="#ffffff"
     bordercolor="#000000"
     borderopacity="0.25"
     inkscape:showpageshadow="2"
     inkscape:pageopacity="0.0"
     inkscape:pagecheckerboard="0"
     inkscape:deskcolor="#d1d1d1"
     inkscape:document-units="px"
     inkscape:zoom="0.18618412"
     inkscape:cx="1460.9194"
     inkscape:cy="2500.2132"
     inkscape:window-width="1920"
     inkscape:window-height="1019"
     inkscape:window-x="0"
     inkscape:window-y="0"
     inkscape:window-maximized="1"
     inkscape:current-layer="layer1" /><defs
     id="defs1"><linearGradient
       id="linearGradient18"
       inkscape:collect="always"><stop
         style="stop-color:#000000;stop-opacity:0.34999999;"
         offset="0"
         id="stop18" /><stop
         style="stop-color:#000000;stop-opacity:0;"
         offset="1"
         id="stop19" /></linearGradient><linearGradient
       id="linearGradient6"
       inkscape:collect="always"><stop
         style="stop-color:#213aff;stop-opacity:1;"
         offset="0"
         id="stop5" /><stop
         style="stop-color:#7b00a1;stop-opacity:1;"
         offset="1"
         id="stop6" /></linearGradient><linearGradient
       id="linearGradient1"
       inkscape:collect="always"><stop
         style="stop-color:#000848;stop-opacity:1;"
         offset="0"
         id="stop1" /><stop
         style="stop-color:#004246;stop-opacity:1;"
         offset="1"
         id="stop2" /></linearGradient><linearGradient
       inkscape:collect="always"
       xlink:href="#linearGradient1"
       id="linearGradient2"
       x1="1916.8812"
       y1="384.36633"
       x2="1919.1781"
       y2="2.6062658"
       gradientUnits="userSpaceOnUse" /><linearGradient
       inkscape:collect="always"
       xlink:href="#linearGradient6"
       id="linearGradient2-9"
       x1="17.12995"
       y1="37.64072"
       x2="196.86539"
       y2="215.03328"
       gradientUnits="userSpaceOnUse"
       gradientTransform="matrix(2.8429572,0,0,2.8429572,268.87435,484.10605)" /><linearGradient
       inkscape:collect="always"
       xlink:href="#linearGradient6"
       id="linearGradient7"
       gradientUnits="userSpaceOnUse"
       gradientTransform="matrix(2.8429572,0,0,2.8429572,1143.3748,484.10605)"
       x1="17.12995"
       y1="37.64072"
       x2="196.86539"
       y2="215.03328" /><linearGradient
       inkscape:collect="always"
       xlink:href="#linearGradient6"
       id="linearGradient8"
       gradientUnits="userSpaceOnUse"
       gradientTransform="matrix(2.8429572,0,0,2.8429572,1993.2033,484.10605)"
       x1="17.12995"
       y1="37.64072"
       x2="196.86539"
       y2="215.03328" /><linearGradient
       inkscape:collect="always"
       xlink:href="#linearGradient6"
       id="linearGradient9"
       gradientUnits="userSpaceOnUse"
       gradientTransform="matrix(2.8429572,0,0,2.8429572,2932.6993,484.10605)"
       x1="17.12995"
       y1="37.64072"
       x2="196.86539"
       y2="215.03328" /><filter
       inkscape:collect="always"
       style="color-interpolation-filters:sRGB"
       id="filter15"
       x="-0.075"
       y="-0.075"
       width="1.15"
       height="1.15"><feGaussianBlur
         inkscape:collect="always"
         stdDeviation="17.944386"
         id="feGaussianBlur15" /></filter><filter
       inkscape:collect="always"
       style="color-interpolation-filters:sRGB"
       id="filter16"
       x="-0.075"
       y="-0.075"
       width="1.15"
       height="1.15"><feGaussianBlur
         inkscape:collect="always"
         stdDeviation="17.944386"
         id="feGaussianBlur16" /></filter><filter
       inkscape:collect="always"
       style="color-interpolation-filters:sRGB"
       id="filter17"
       x="-0.075"
       y="-0.075"
       width="1.15"
       height="1.15"><feGaussianBlur
         inkscape:collect="always"
         stdDeviation="17.944386"
         id="feGaussianBlur17" /></filter><linearGradient
       inkscape:collect="always"
       xlink:href="#linearGradient18"
       id="linearGradient19"
       x1="1920.3541"
       y1="1945.0215"
       x2="1920.3341"
       y2="1916.6724"
       gradientUnits="userSpaceOnUse"
       gradientTransform="matrix(1,0,0,1.8973352,0,-1746.6531)" /><linearGradient
       inkscape:collect="always"
       xlink:href="#linearGradient6"
       id="linearGradient24"
       gradientUnits="userSpaceOnUse"
       gradientTransform="matrix(2.8429572,0,0,2.8429572,1993.2033,484.10605)"
       x1="17.12995"
       y1="37.64072"
       x2="196.86539"
       y2="215.03328" /><linearGradient
       inkscape:collect="always"
       xlink:href="#linearGradient6"
       id="linearGradient25"
       gradientUnits="userSpaceOnUse"
       gradientTransform="matrix(2.8429572,0,0,2.8429572,1143.3748,484.10605)"
       x1="17.12995"
       y1="37.64072"
       x2="196.86539"
       y2="215.03328" /><linearGradient
       inkscape:collect="always"
       xlink:href="#linearGradient6"
       id="linearGradient26"
       gradientUnits="userSpaceOnUse"
       gradientTransform="matrix(2.8429572,0,0,2.8429572,268.87435,484.10605)"
       x1="17.12995"
       y1="37.64072"
       x2="196.86539"
       y2="215.03328" /></defs><g
     inkscape:label="Layer 1"
     inkscape:groupmode="layer"
     id="layer1"><rect
       style="font-variation-settings:'wdth' 109.9, 'wght' 700;fill:url(#linearGradient2);fill-opacity:1;stroke-width:5.67046"
       id="rect1"
       width="3840.3967"
       height="386.94968"
       x="0.021370867"
       y="0.061453138" /><rect
       style="font-variation-settings:'wdth' 109.9, 'wght' 700;fill:#000848;fill-opacity:1;stroke-width:11.4008"
       id="rect2"
       width="3840.3967"
       height="1564.1987"
       x="0.021370867"
       y="380.06146" /><rect
       style="font-variation-settings:'wdth' 109.9, 'wght' 700;fill:#1f1c36;fill-opacity:1;stroke-width:4.24377"
       id="rect3"
       width="3840.3967"
       height="216.73254"
       x="0.021370867"
       y="1942.5515" /><path
       style="fill:#ffffff;fill-opacity:1;stroke-width:0.623326"
       d="m 3628.4566,2096.8413 c -0.4476,-0.1384 -1.8754,-0.7947 -3.173,-1.4586 -1.6685,-0.8536 -2.4152,-1.43 -2.5504,-1.9687 -0.3986,-1.5881 1.1134,-2.7613 2.2009,-1.7077 0.6673,0.6466 3.8501,2.1204 5.4756,2.5355 2.0891,0.5336 5.0957,0.1343 7.8768,-1.0459 1.3072,-0.5548 2.45,-1.1028 2.5395,-1.2177 0.09,-0.115 0.9871,-0.7684 1.9945,-1.4519 2.0402,-1.3843 6.2431,-5.4924 7.7944,-7.6186 l 1.0094,-1.3835 -1.4116,-0.01 c -1.6789,-0.01 -3.3796,-0.3687 -7.108,-1.5014 -5.4782,-1.6641 -6.6819,-2.4874 -5.8659,-4.0121 0.4496,-0.8399 1.3028,-0.8396 3.0333,0 0.7523,0.3656 1.8804,0.7912 2.5071,0.946 0.6265,0.1548 2.604,0.6464 4.3943,1.0926 1.7904,0.4463 3.9402,0.9068 4.7775,1.0236 l 1.5222,0.2122 1.3309,-2.2787 c 0.732,-1.2533 1.4751,-2.368 1.6515,-2.4769 0.1763,-0.1091 0.3206,-0.4344 0.3206,-0.723 0,-0.2886 0.2058,-0.7561 0.4572,-1.0387 0.8368,-0.9403 2.5482,-4.6377 2.2641,-4.8908 -0.5813,-0.5177 -7.7306,-3.9697 -9.7358,-4.7009 -0.7074,-0.2578 -1.8712,-0.7609 -2.5863,-1.118 -1.3424,-0.6701 -1.7922,-0.6509 -1.7922,0.077 0,0.2318 -0.3864,0.8457 -0.8587,1.3642 -2.6221,2.8785 -4.0895,4.3605 -4.3174,4.3605 -0.1412,0 -0.5341,0.3066 -0.8731,0.6813 -0.3391,0.3746 -0.8756,0.8198 -1.1921,0.9892 -1.4111,0.7551 -7.0717,2.5797 -8.5685,2.7618 -1.5786,0.1921 -1.681,0.2661 -2.3628,1.709 -0.8581,1.816 -0.8873,3.0038 -0.1428,5.7981 0.5488,2.0592 0.5471,2.1306 -0.062,2.5761 -1.1479,0.8394 -1.7954,0.5605 -2.5263,-1.088 -1.0256,-2.3133 -1.1627,-5.7535 -0.3063,-7.6894 l 0.6777,-1.5321 -0.7354,-0.2796 c -2.403,-0.9136 -5.2495,-2.3887 -6.425,-3.3297 -1.656,-1.3255 -3.8818,-3.5209 -3.8818,-3.8287 0,-0.1242 -0.2575,-0.5098 -0.5722,-0.8569 -2.0692,-2.2816 -2.3604,-5.0254 -0.5333,-5.0254 0.6016,0 1.0546,0.4499 1.9995,1.9862 2.3033,3.7443 4.8766,5.9509 8.937,7.6634 3.1554,1.3308 4.9327,1.3984 8.1802,0.3112 1.2834,-0.4296 2.7085,-0.8649 3.1672,-0.9673 0.4585,-0.1024 1.2642,-0.5564 1.7903,-1.0088 0.5261,-0.4524 1.0624,-0.8228 1.192,-0.823 0.3242,-6e-4 2.7898,-2.4977 4.0888,-4.141 l 1.0693,-1.3526 -1.5394,-0.681 c -0.8467,-0.3745 -1.9137,-0.7694 -2.3713,-0.8776 -0.4575,-0.1081 -1.7108,-0.5656 -2.785,-1.0166 -1.8016,-0.7562 -3.6481,-1.447 -9.2771,-3.4703 -1.1637,-0.4184 -2.9763,-1.1426 -4.028,-1.6095 -1.0517,-0.4668 -2.1182,-0.8489 -2.3698,-0.8489 -0.2516,0 -1.3605,-0.38 -2.4642,-0.8445 -1.1036,-0.4645 -2.9668,-1.1041 -4.1404,-1.4212 -1.1737,-0.3172 -3.1593,-0.8748 -4.4125,-1.2391 -1.2533,-0.3643 -3.011,-0.8243 -3.9061,-1.022 -0.8952,-0.1977 -3.0192,-0.7173 -4.72,-1.1547 -3.9273,-1.0098 -12.5669,-2.7018 -15.1984,-2.9766 -1.1082,-0.1157 -2.5365,-0.1126 -3.1737,0.01 l -1.1586,0.2173 v 2.8691 2.8691 l 1.7089,1.2722 c 2.0523,1.5279 2.4503,2.8013 1.0718,3.4294 -0.7217,0.3289 -0.9818,0.2811 -1.8117,-0.3325 l -0.969,-0.7164 v 13.6812 13.6813 h -6.1848 -6.1847 v -28.9706 -28.9706 h 6.1847 6.1848 v 9.1957 9.1957 l 4.1339,0.073 c 3.9171,0.07 7.1265,0.5314 11.1625,1.606 0.9847,0.2622 2.596,0.6083 3.5806,0.7691 0.9848,0.1608 3.1087,0.6676 4.72,1.1263 1.6113,0.4587 3.4423,0.9153 4.0689,1.0148 1.0961,0.1739 6.5459,1.8483 9.9281,3.0504 0.8952,0.3181 2.36,0.837 3.2552,1.153 0.8951,0.3161 2.6352,0.9937 3.8668,1.5059 1.2316,0.5122 2.4271,0.9312 2.6566,0.9312 0.2295,0 1.6152,0.5127 3.0791,1.1393 2.9249,1.2519 3.5453,1.3928 2.9446,0.669 -0.5166,-0.6225 -0.3163,-1.8176 0.3775,-2.2525 0.4033,-0.2527 0.8821,-0.2298 1.7491,0.084 1.509,0.5456 1.7528,0.233 1.7596,-2.2566 l 0.01,-1.8033 -2.43,-1.0449 c -1.3365,-0.5747 -2.5613,-1.0449 -2.7218,-1.0449 -0.1605,0 -1.3009,-0.4579 -2.5341,-1.0175 -1.2333,-0.5596 -2.9014,-1.225 -3.707,-1.4786 -2.4305,-0.7649 -4.966,-2.1687 -5.6769,-3.1429 -0.5184,-0.7105 -0.6707,-1.4123 -0.6707,-3.0924 v -2.1733 l -1.8671,0.8951 c -1.027,0.4924 -2.005,0.8953 -2.1735,0.8953 -0.1684,0 -1.4162,0.5126 -2.7727,1.1392 -1.3566,0.6266 -2.6172,1.1393 -2.8015,1.1393 -0.1842,0 -1.0576,0.3662 -1.9408,0.8138 -0.8833,0.4476 -1.9591,0.8138 -2.3907,0.8138 -0.928,0 -1.6138,-0.7142 -1.4587,-1.5191 0.145,-0.7532 1.9806,-1.9715 3.6462,-2.42 0.7293,-0.1964 2.1678,-0.782 3.1966,-1.3014 1.0289,-0.5194 2.0438,-0.9443 2.2554,-0.9443 0.2116,0 1.2046,-0.3906 2.2065,-0.8681 1.002,-0.4775 2.6965,-1.1855 3.7657,-1.5735 1.8129,-0.6578 1.9886,-0.8141 2.6042,-2.3148 1.0494,-2.5586 2.093,-4.0126 3.0469,-4.2452 0.4775,-0.1165 1.2824,-0.5557 1.7884,-0.976 1.1459,-0.9518 1.4689,-0.9512 4.2881,0.01 1.2532,0.4261 2.8645,0.9575 3.5806,1.1808 0.7162,0.2234 1.9246,0.6848 2.6855,1.0252 0.7609,0.3406 1.8595,0.7137 2.4413,0.8293 0.5819,0.1156 2.302,0.6978 3.8226,1.2939 1.5205,0.5961 2.9516,1.0838 3.1802,1.0838 0.2286,0 1.3162,0.3659 2.417,0.8132 1.1007,0.4473 2.059,0.7556 2.1295,0.6851 0.071,-0.071 -0.1026,-1.2457 -0.3847,-2.6115 -0.8324,-4.0301 -3.5544,-8.2919 -7.0241,-10.9979 -2.1519,-1.6781 -8.6998,-3.5135 -12.535,-3.5135 -6.0942,0 -13.3434,4.01 -17.0657,9.4403 -1.2377,1.8056 -4.0896,7.7447 -4.2982,8.9511 -0.1513,0.8745 -2.1257,1.1211 -2.439,0.3046 -0.702,-1.8295 3.1214,-9.9875 6.3765,-13.6054 1.0803,-1.2008 5.3869,-4.4826 6.8599,-5.2276 2.9203,-1.4771 5.2032,-2.1112 8.3425,-2.3175 3.4268,-0.2251 9.2235,0.2418 10.7515,0.8661 4.3952,1.7954 5.9743,2.6149 6.3339,3.2869 0.1708,0.319 0.5144,0.58 0.7637,0.58 0.2492,0 0.7589,0.4028 1.1325,0.8952 0.3737,0.4924 1.0397,1.2965 1.4801,1.787 0.718,0.7997 1.1025,1.4212 2.742,4.4324 0.6256,1.1489 1.9815,6.4399 1.9815,7.732 0,1.0092 0.094,1.0824 2.632,2.0516 1.4475,0.5528 2.7589,1.005 2.9143,1.005 0.1552,0 0.6643,0.1741 1.1312,0.3868 0.8116,0.3698 2.1114,2.6026 2.1114,3.6269 0,0.9736 -3.4941,12.2538 -3.9753,12.8335 -0.1879,0.2264 -1.128,0.6402 -2.0893,0.9197 -0.9612,0.2794 -1.7477,0.6375 -1.7477,0.7957 0,0.4938 -2.2984,0.7458 -3.484,0.382 -1.0719,-0.329 -1.1845,-0.2863 -2.1532,0.817 -0.5622,0.6403 -1.1717,1.4152 -1.3545,1.7221 -0.1828,0.3069 -0.806,1.1835 -1.3849,1.9481 l -1.0526,1.3902 2.2629,1.0978 c 1.2446,0.6038 2.3665,1.0978 2.4931,1.0978 0.2857,0 4.5111,1.9751 7.0599,3.3 1.0441,0.5427 1.9324,0.9377 1.974,0.8778 0.3703,-0.5335 2.475,-5.1996 2.475,-5.4872 0,-0.2051 0.5094,-1.9353 1.1319,-3.8448 2.0266,-6.2163 3.142,-11.7669 3.6153,-17.9913 0.787,-10.3497 -0.4254,-18.549 -3.694,-24.9823 -2.0267,-3.9893 -5.3463,-6.1955 -8.4041,-5.5854 -2.1266,0.4243 -5.9112,2.0258 -6.3559,2.6896 -0.109,0.1627 -0.6217,0.2474 -1.1393,0.1883 -0.7578,-0.086 -0.9616,-0.2857 -1.0461,-1.0223 -0.1442,-1.2575 0.2921,-1.6762 3.2977,-3.1648 2.545,-1.2607 2.6888,-1.2912 6.0546,-1.2874 3.7973,0.01 4.8733,0.3875 7.3066,2.6017 2.7074,2.4637 5.487,9.4151 6.525,16.3185 0.6741,4.4827 0.6806,12.284 0.015,17.696 -0.5853,4.7578 -2.3635,12.6019 -3.8003,16.764 -0.5253,1.5218 -1.0733,3.2386 -1.2177,3.8153 -0.1444,0.5766 -0.7185,1.8562 -1.2757,2.8435 l -1.0131,1.795 1.8718,0.949 c 1.0296,0.5221 2.3113,1.3297 2.8484,1.7947 0.5371,0.4651 1.06,0.8458 1.1621,0.846 0.3857,0 2.2086,1.8404 3.0292,3.0569 0.6645,0.9849 0.8541,1.663 0.8541,3.0539 0,2.221 -0.765,3.5589 -2.6368,4.6109 -1.2238,0.6877 -1.7966,0.7717 -5.4684,0.8013 l -4.1015,0.033 v -1.1392 -1.1393 l 3.2551,-0.1747 c 3.3835,-0.1816 5.7062,-0.9742 6.1358,-2.0936 0.5308,-1.3834 -1.068,-3.8243 -3.2805,-5.0084 -0.3788,-0.2027 -0.8923,-0.5723 -1.1414,-0.8213 -0.5148,-0.5148 -2.9978,-1.8302 -3.4549,-1.8302 -0.1663,0 -0.9088,1.1659 -1.6501,2.5908 -0.7413,1.425 -1.4901,2.6787 -1.6638,2.7861 -0.1738,0.1074 -0.316,0.406 -0.316,0.6636 0,0.2575 -0.5264,1.201 -1.1698,2.0966 -1.1449,1.5935 -1.1535,1.6284 -0.4069,1.6333 1.1802,0.01 1.6397,0.4592 1.5214,1.4951 -0.1043,0.9138 -0.1668,0.9441 -2.1388,1.0381 -1.7061,0.081 -2.0923,0.2116 -2.4132,0.8138 -0.6624,1.2434 -3.7154,4.8766 -5.6949,6.7772 -3.8523,3.6988 -7.1724,5.8499 -11.3039,7.3239 -1.3622,0.486 -7.5632,0.5843 -8.9921,0.1425 z m 17.3888,-40.7884 c 0.6232,-0.9399 1.5876,-2.3481 2.1431,-3.1293 0.5555,-0.7812 0.9626,-1.4677 0.9046,-1.5257 -0.2325,-0.2326 -3.2637,-1.4486 -3.6182,-1.4515 -0.209,0 -1.149,-0.3613 -2.0889,-0.7988 l -1.7089,-0.7957 v 1.2824 c 0,0.7054 -0.1814,1.9606 -0.4031,2.7895 -0.4812,1.7993 -1.2629,2.2209 -3.6658,1.9772 l -1.6276,-0.165 2.0485,0.9404 c 1.1267,0.5172 2.6159,1.0932 3.3094,1.2799 0.6935,0.1868 1.6759,0.556 2.1832,0.8206 0.5072,0.2645 1.0276,0.4818 1.1564,0.483 0.1287,0 0.744,-0.7671 1.3673,-1.707 z m 12.9383,-8.0831 c 0.1195,-0.4329 0.7556,-2.4774 1.4137,-4.5434 1.0757,-3.3769 1.5221,-5.8942 1.1171,-6.2991 -0.1909,-0.191 -6.5426,-2.4175 -8.4445,-2.9601 -0.8056,-0.2299 -2.4169,-0.8073 -3.5806,-1.2831 -1.1637,-0.4758 -2.7683,-1.0128 -3.5658,-1.1933 -0.7974,-0.1804 -1.896,-0.5313 -2.4413,-0.7796 -1.9795,-0.9019 -3.5226,-1.4689 -3.9969,-1.4689 -0.2665,0 -1.7501,-0.4922 -3.2968,-1.0937 -4.4266,-1.7216 -6.23,-2.1976 -6.23,-1.6447 0,0.2514 -0.5127,1.567 -1.1392,2.9235 -0.6267,1.3566 -1.1394,2.6228 -1.1394,2.814 0,0.1911 -0.3269,1.002 -0.7264,1.8021 l -0.7265,1.4546 0.9706,0.7766 c 0.5338,0.4272 1.1171,0.7823 1.2961,0.7893 0.1791,0.01 0.9114,0.2957 1.6276,0.6416 0.7161,0.3459 1.4845,0.6339 1.7076,0.64 0.223,0.01 1.5154,0.5237 2.8719,1.1503 1.3567,0.6266 2.6649,1.1393 2.9073,1.1393 0.2424,0 1.5506,0.5127 2.9072,1.1393 1.3565,0.6266 2.6204,1.1393 2.8085,1.1393 0.1881,0 1.3746,0.4394 2.6368,0.9765 1.2621,0.5371 2.3324,0.9766 2.3783,0.9766 0.1501,0 -0.5137,-3.0296 -1.3387,-6.1094 -0.4445,-1.6592 -0.762,-3.417 -0.7057,-3.9061 0.088,-0.7661 0.2676,-0.9029 1.2954,-0.9886 1.3375,-0.1114 1.203,-0.3397 2.0713,3.5173 1.0666,4.7382 2.2826,8.9017 2.634,9.0189 0.4825,0.1608 0.061,-2.4078 -1.0004,-6.0973 -0.456,-1.5847 -0.829,-3.2387 -0.829,-3.6754 0,-1.041 0.7659,-1.6482 1.7632,-1.398 0.8391,0.2107 1.3745,1.5563 2.1614,5.4321 0.197,0.9709 0.658,2.9641 1.0243,4.4296 0.5932,2.3729 0.7774,2.7194 1.6834,3.1659 1.2509,0.6165 1.6065,0.5249 1.8855,-0.4861 z m -178.0924,32.7543 c -8.5906,-1.6353 -14.5728,-6.3503 -17.206,-13.5612 l -0.8774,-2.4025 -0.092,-21.2397 -0.093,-21.2397 h 6.184 6.184 l 0.093,19.7823 0.093,19.7822 1.0646,2.162 c 1.8483,3.7534 4.9492,5.7255 9.4926,6.0369 4.9873,0.3418 9.2188,-1.8575 11.3515,-5.9 l 0.8772,-1.6626 0.091,-20.1004 0.091,-20.1004 h 6.3535 6.3535 l -0.1003,20.9142 -0.1003,20.9141 -0.8845,2.6042 c -2.2602,6.6546 -7.8215,11.6322 -15.1283,13.5401 -3.3555,0.8761 -10.3578,1.1159 -13.7474,0.4705 z m 54.2826,0.1238 c -5.6988,-0.836 -9.8339,-2.6989 -12.9992,-5.8562 -3.0157,-3.008 -4.4156,-6.1131 -5.0197,-11.1338 l -0.2261,-1.879 6.1331,0.089 6.133,0.089 0.2395,1.4048 c 0.4312,2.5282 2.2533,4.7445 4.8415,5.8889 5.0578,2.2365 12.4918,1.1011 14.9427,-2.2823 2.5413,-3.5081 0.9724,-7.2845 -3.7694,-9.0725 -1.0528,-0.397 -4.6518,-1.4306 -7.9975,-2.2971 -8.9767,-2.3244 -12.5869,-4.0533 -15.7044,-7.5207 -2.3113,-2.5707 -2.9439,-4.564 -2.9304,-9.2325 0.01,-3.2676 0.1311,-4.209 0.7439,-5.7589 2.1772,-5.5063 7.7274,-9.6941 14.7647,-11.1404 3.2016,-0.658 9.2881,-0.6668 12.5596,-0.018 3.7676,0.747 8.146,3.0095 10.6056,5.4805 2.7795,2.7923 4.7612,7.1746 4.7612,10.5289 v 1.0709 h -5.9858 -5.9857 l -0.2025,-1.0796 c -0.2945,-1.5697 -1.7178,-3.5894 -3.2127,-4.5587 -3.8048,-2.4671 -11.8388,-1.7284 -14.2272,1.3081 -1.6547,2.1034 -1.63,4.8741 0.06,6.7995 1.5383,1.7519 3.5423,2.5828 10.4124,4.3171 3.459,0.8732 7.2076,1.9586 8.33,2.412 4.9855,2.0138 8.2698,4.8383 10.1216,8.7048 1.0745,2.2436 1.179,2.7238 1.2904,5.9279 0.099,2.8405 -0.01,3.896 -0.5518,5.6964 -1.9865,6.5224 -7.5831,10.725 -15.9654,11.9885 -3.3666,0.5075 -8.1835,0.5612 -11.1618,0.1243 z m -180.2734,-29.5963 v -28.9706 h 6.3475 6.3475 v 28.9706 28.9706 h -6.3475 -6.3475 z m 20.8328,0 v -28.9706 h 6.1848 6.1847 v 23.9251 23.9252 h 12.3695 12.3694 v 5.0455 5.0454 h -18.5542 -18.5542 z m 43.2932,0 v -28.9706 h 6.3475 6.3475 v 23.9251 23.9252 h 12.3694 12.3695 v 5.0455 5.0454 h -18.7169 -18.717 z m 254.8763,-0.01 v -28.9783 l 5.5927,0.089 5.5927,0.089 12.3919,18.0561 12.3919,18.0562 0.084,-18.1375 0.084,-18.1375 h 6.3447 6.3448 v 28.9706 28.9706 h -5.5076 -5.5078 l -12.4768,-18.0656 -12.4769,-18.0657 -0.084,18.0657 -0.084,18.0656 h -6.3448 -6.3448 z m -73.3682,24.2318 c -0.3749,-0.9769 -0.1938,-1.629 0.9426,-3.3927 0.6271,-0.9735 1.7053,-2.946 2.396,-4.3835 1.1569,-2.4079 1.2849,-2.9596 1.6271,-7.0081 0.2042,-2.4169 0.3711,-5.3538 0.3709,-6.5265 -5e-4,-2.2588 0.3284,-2.9133 1.4643,-2.9133 1.1368,0 1.465,0.6539 1.462,2.9133 -0.01,3.2868 -0.5911,9.1696 -1.1589,11.6181 -0.9005,3.8827 -4.7144,10.2075 -6.1552,10.2075 -0.4132,0 -0.8402,-0.2317 -0.9488,-0.5148 z m 31.1393,-12.8196 c -0.7574,-0.3438 -1.5631,-0.7816 -1.7903,-0.9729 -0.2273,-0.1913 -0.8161,-0.6498 -1.3084,-1.0189 -1.1751,-0.881 -1.243,-2.4325 -0.1286,-2.9402 0.6653,-0.3031 0.9986,-0.1733 2.5227,0.9824 1.9199,1.4558 3.2301,1.8453 5.1662,1.5357 1.4558,-0.2328 2.3853,0.4111 2.2224,1.5396 -0.222,1.5375 -4.1043,2.0454 -6.684,0.8743 z m -35.8941,-1.8697 c -0.5111,-0.1876 -1.881,-0.7892 -4.8827,-2.1445 -0.9846,-0.4446 -2.2891,-1.2363 -2.8989,-1.7594 -0.9241,-0.7928 -1.072,-1.0968 -0.889,-1.8262 0.3073,-1.2241 1.7652,-1.1782 3.6445,0.1148 0.7913,0.5444 2.3557,1.3357 3.4765,1.7585 3.5721,1.3473 3.8282,1.511 3.8282,2.4469 0,1.3812 -0.8773,1.9241 -2.2786,1.4099 z"
       id="path138" /><text
       xml:space="preserve"
       style="font-style:normal;font-variant:normal;font-weight:normal;font-stretch:normal;font-size:170.667px;line-height:0px;font-family:Archivo;-inkscape-font-specification:'Archivo, @wght=700,wdth=109.9';font-variant-ligatures:normal;font-variant-caps:normal;font-variant-numeric:normal;font-variant-east-asian:normal;font-variation-settings:'wdth' 109.9, 'wght' 700;text-align:center;text-anchor:middle;fill:#d90baa;stroke-width:5.29565"
       x="796.47766"
       y="290.0184"
       id="text2"
       transform="scale(0.9340924,1.0705579)"><tspan
         id="tspan2"
         style="font-style:normal;font-variant:normal;font-weight:normal;font-stretch:normal;font-size:170.667px;font-family:Archivo;-inkscape-font-specification:'Archivo, @wght=700,wdth=109.9';font-variant-ligatures:normal;font-variant-caps:normal;font-variant-numeric:normal;font-variant-east-asian:normal;font-variation-settings:'wdth' 109.9, 'wght' 700;fill:#ffffff;fill-opacity:1;stroke-width:5.29565"
         x="796.47766"
         y="290.0184"
         sodipodi:role="line">Welcome back</tspan></text><rect
       style="font-variation-settings:'wdth' 109.9, 'wght' 700;fill:url(#linearGradient19);stroke-width:2.11044"
       id="rect18"
       width="3840.3967"
       height="53.600098"
       x="0.021370867"
       y="1888.6602" /><g
       id="g24"
       transform="translate(37.732391)"><g
         id="g21"><rect
           style="opacity:0.25;fill:url(#linearGradient9);stroke-width:4.26444"
           id="rect8"
           width="574.22034"
           height="574.22034"
           x="2948.603"
           y="556.22949"
           ry="107.88519" /><text
           xml:space="preserve"
           style="font-style:normal;font-variant:normal;font-weight:normal;font-stretch:normal;font-size:170.667px;line-height:0px;font-family:Archivo;-inkscape-font-specification:'Archivo, @wght=700,wdth=109.9';font-variant-ligatures:normal;font-variant-caps:normal;font-variant-numeric:normal;font-variant-east-asian:normal;font-variation-settings:'wdth' 109.9, 'wght' 700;text-align:center;text-anchor:middle;fill:#d90baa;stroke-width:5.29565"
           x="3464.1038"
           y="800.81317"
           id="text17"
           transform="scale(0.9340924,1.0705579)"><tspan
             id="tspan17"
             style="font-style:normal;font-variant:normal;font-weight:normal;font-stretch:normal;font-size:170.667px;font-family:Archivo;-inkscape-font-specification:'Archivo, @wght=700,wdth=109.9';font-variant-ligatures:normal;font-variant-caps:normal;font-variant-numeric:normal;font-variant-east-asian:normal;font-variation-settings:'wdth' 109.9, 'wght' 700;opacity:0.5;fill:#ffffff;fill-opacity:1;stroke-width:5.29565"
             x="3464.1038"
             y="800.81317"
             sodipodi:role="line">...</tspan></text></g><g
         id="g22"><rect
           style="fill:url(#linearGradient24);stroke-width:4.26444;filter:url(#filter17)"
           id="rect17"
           width="574.22034"
           height="574.22034"
           x="2009.1072"
           y="556.22949"
           ry="107.88519" /><rect
           style="fill:url(#linearGradient8);stroke-width:4.26444"
           id="rect7"
           width="574.22034"
           height="574.22034"
           x="2009.1072"
           y="556.22949"
           ry="107.88519" /><path
           d="m 2296.2173,999.69818 q -7.3836,0 -12.3784,-4.99479 -4.9948,-4.99478 -4.9948,-12.37837 v -69.49268 q 0,-7.3836 4.9948,-12.37838 4.9948,-4.99479 12.3784,-4.99479 7.3836,0 12.3784,4.99479 4.9948,4.99478 4.9948,12.37838 v 17.37316 h 121.6122 q 7.3834,0 12.3782,4.9948 4.9948,4.99478 4.9948,12.37837 0,7.38361 -4.9948,12.37839 -4.9948,4.99479 -12.3782,4.99479 h -121.6122 v 17.37317 q 0,7.38359 -4.9948,12.37837 -4.9948,4.99479 -12.3784,4.99479 z m -138.9854,-34.74633 q -7.3834,0 -12.3782,-4.99479 -4.9948,-4.99478 -4.9948,-12.37839 0,-7.38359 4.9948,-12.37837 4.9948,-4.9948 12.3782,-4.9948 h 69.4928 q 7.3836,0 12.3784,4.9948 4.9948,4.99478 4.9948,12.37837 0,7.38361 -4.9948,12.37839 -4.9948,4.99479 -12.3784,4.99479 z m 69.4928,-69.49268 q -7.3836,0 -12.3784,-4.99479 -4.9948,-4.99478 -4.9948,-12.37839 v -17.37316 h -52.1196 q -7.3834,0 -12.3782,-4.9948 -4.9948,-4.99477 -4.9948,-12.37837 0,-7.3836 4.9948,-12.37837 4.9948,-4.9948 12.3782,-4.9948 h 52.1196 v -17.37316 q 0,-7.38361 4.9948,-12.37839 4.9948,-4.99479 12.3784,-4.99479 7.3836,0 12.3784,4.99479 4.9948,4.99478 4.9948,12.37839 v 69.49266 q 0,7.38361 -4.9948,12.37839 -4.9948,4.99479 -12.3784,4.99479 z m 69.4926,-34.74634 q -7.3836,0 -12.3784,-4.9948 -4.9948,-4.99477 -4.9948,-12.37837 0,-7.3836 4.9948,-12.37837 4.9948,-4.9948 12.3784,-4.9948 h 138.9854 q 7.3834,0 12.3782,4.9948 4.9948,4.99477 4.9948,12.37837 0,7.3836 -4.9948,12.37837 -4.9948,4.9948 -12.3782,4.9948 z m 69.4926,-69.49268 q -7.3836,0 -12.3784,-4.99479 -4.9948,-4.99478 -4.9948,-12.37838 V 704.3543 q 0,-7.38359 4.9948,-12.37837 4.9948,-4.99479 12.3784,-4.99479 7.3836,0 12.3784,4.99479 4.9948,4.99478 4.9948,12.37837 v 17.37317 h 52.1196 q 7.3834,0 12.3782,4.99479 4.9948,4.99478 4.9948,12.37839 0,7.38359 -4.9948,12.37837 -4.9948,4.9948 -12.3782,4.9948 h -52.1196 v 17.37316 q 0,7.3836 -4.9948,12.37838 -4.9948,4.99479 -12.3784,4.99479 z m -208.478,-34.74633 q -7.3834,0 -12.3782,-4.9948 -4.9948,-4.99478 -4.9948,-12.37837 0,-7.38361 4.9948,-12.37839 4.9948,-4.99479 12.3782,-4.99479 h 138.9854 q 7.3836,0 12.3784,4.99479 4.9948,4.99478 4.9948,12.37839 0,7.38359 -4.9948,12.37837 -4.9948,4.9948 -12.3784,4.9948 z"
           id="path1"
           style="fill:#ffffff;fill-opacity:1;stroke-width:0.43433" /></g><g
         id="g23"><rect
           style="fill:url(#linearGradient25);stroke-width:4.26444;filter:url(#filter16)"
           id="rect16"
           width="574.22034"
           height="574.22034"
           x="1159.2787"
           y="556.22949"
           ry="107.88519" /><rect
           style="fill:url(#linearGradient7);stroke-width:4.26444"
           id="rect6"
           width="574.22034"
           height="574.22034"
           x="1159.2787"
           y="556.22949"
           ry="107.88519" /><path
           d="m 1339.0795,986.41886 q -14.755,0 -25.2625,-10.5073 -10.5073,-10.50744 -10.5073,-25.26248 v -71.53962 q 0,-14.75504 10.5073,-25.26239 10.5075,-10.50739 25.2625,-10.50739 14.755,0 25.2624,10.50739 10.5074,10.50735 10.5074,25.26239 v 71.53962 q 0,14.75504 -10.5074,25.26248 -10.5074,10.5073 -25.2624,10.5073 z m 107.3094,0 q -14.755,0 -25.2624,-10.5073 -10.5074,-10.50744 -10.5074,-25.26248 V 736.03027 q 0,-14.75505 10.5074,-25.26242 10.5074,-10.50738 25.2624,-10.50738 14.755,0 25.2624,10.50738 10.5074,10.50737 10.5074,25.26242 v 214.61881 q 0,14.75504 -10.5074,25.26248 -10.5074,10.5073 -25.2624,10.5073 z m 107.3094,0 q -14.755,0 -25.2624,-10.5073 -10.5074,-10.50744 -10.5074,-25.26248 V 825.45476 q 0,-14.75503 10.5074,-25.26241 10.5074,-10.50738 25.2624,-10.50738 14.755,0 25.2625,10.50738 10.5073,10.50738 10.5073,25.26241 v 125.19432 q 0,14.75504 -10.5073,25.26248 -10.5075,10.5073 -25.2625,10.5073 z"
           id="path1-0"
           style="fill:#ffffff;fill-opacity:1;stroke-width:0.447123" /></g><g
         id="g20"><rect
           style="fill:url(#linearGradient26);stroke-width:4.26444;filter:url(#filter15)"
           id="rect15"
           width="574.22034"
           height="574.22034"
           x="284.77838"
           y="556.22949"
           ry="107.88519" /><rect
           style="fill:url(#linearGradient2-9);stroke-width:4.26444"
           id="rect1-3"
           width="574.22034"
           height="574.22034"
           x="284.77838"
           y="556.22949"
           ry="107.88519" /><path
           d="M 556.61407,858.61418 H 480.2415 q -6.49165,0 -10.88309,-4.39143 -4.39139,-4.39142 -4.39139,-10.88308 0,-6.49166 4.39139,-10.88309 4.39144,-4.39142 10.88309,-4.39142 h 76.37257 v -76.37254 q 0,-6.49166 4.39139,-10.88308 4.39144,-4.39142 10.88309,-4.39142 6.49165,0 10.88309,4.39142 4.39139,4.39142 4.39139,10.88308 v 76.37254 h 76.37257 q 6.49165,0 10.88309,4.39142 4.39139,4.39143 4.39139,10.88309 0,6.49166 -4.39139,10.88308 -4.39144,4.39143 -10.88309,4.39143 h -76.37257 v 76.37253 q 0,6.49167 -4.39139,10.88311 -4.39144,4.39139 -10.88309,4.39139 -6.49165,0 -10.88309,-4.39139 -4.39139,-4.39144 -4.39139,-10.88311 z"
           id="path1-6"
           style="fill:#ffffff;fill-opacity:1;stroke-width:0.381863" /></g></g><text
       xml:space="preserve"
       style="font-style:normal;font-variant:normal;font-weight:600;font-stretch:normal;font-size:64px;line-height:0px;font-family:Archivo;-inkscape-font-specification:'Archivo, Semi-Bold';font-variant-ligatures:normal;font-variant-caps:normal;font-variant-numeric:normal;font-variant-east-asian:normal;text-align:center;text-anchor:middle;fill:#ffffff;fill-opacity:1;stroke-width:5.657"
       x="293.91232"
       y="2073.6697"
       id="text1394"><tspan
         sodipodi:role="line"
         id="tspan1394"
         x="293.91232"
         y="2073.6697">Post Creator</tspan></text><path
       style="font-variation-settings:'wdth' 109.9, 'wght' 700;opacity:0.25;fill:#ffffff;stroke-width:3.42214"
       id="path2"
       sodipodi:type="arc"
       sodipodi:cx="3611.0813"
       sodipodi:cy="245.43713"
       sodipodi:rx="99.57399"
       sodipodi:ry="99.57399"
       sodipodi:start="0.58416807"
       sodipodi:end="0.58326037"
       sodipodi:arc-type="slice"
       d="m 3694.1431,300.35275 a 99.57399,99.57399 0 0 1 -137.9586,28.1586 99.57399,99.57399 0 0 1 -28.1899,-137.95213 99.57399,99.57399 0 0 1 137.9458,-28.22121 99.57399,99.57399 0 0 1 28.2525,137.93932 l -83.1116,-54.8402 z" /><text
       xml:space="preserve"
       style="font-style:normal;font-variant:normal;font-weight:600;font-stretch:normal;font-size:64px;line-height:0px;font-family:Archivo;-inkscape-font-specification:'Archivo, Semi-Bold';font-variant-ligatures:normal;font-variant-caps:normal;font-variant-numeric:normal;font-variant-east-asian:normal;text-align:center;text-anchor:middle;fill:#ffffff;fill-opacity:1;stroke-width:5.657"
       x="3279.9482"
       y="250.53514"
       id="text3"><tspan
         sodipodi:role="line"
         id="tspan3"
         x="3279.9482"
         y="250.53514">User 20215</tspan></text><text
       xml:space="preserve"
       style="font-style:normal;font-variant:normal;font-weight:600;font-stretch:normal;font-size:64px;line-height:0px;font-family:Archivo;-inkscape-font-specification:'Archivo, Semi-Bold';font-variant-ligatures:normal;font-variant-caps:normal;font-variant-numeric:normal;font-variant-east-asian:normal;text-align:center;text-anchor:middle;fill:#ffffff;fill-opacity:1;stroke-width:5.657"
       x="3299.9482"
       y="290.53516"
       id="text4"><tspan
         sodipodi:role="line"
         id="tspan4"
         x="3299.9482"
         y="290.53516"
         style="font-style:normal;font-variant:normal;font-weight:600;font-stretch:normal;font-size:32px;font-family:Archivo;-inkscape-font-specification:'Archivo, Semi-Bold';font-variant-ligatures:normal;font-variant-caps:normal;font-variant-numeric:normal;font-variant-east-asian:normal;fill:#ffffff;fill-opacity:0.5">example@mail.com</tspan></text><path
       d="m 3611.0813,245.43713 q -12.8796,0 -22.0514,-9.17185 -9.1719,-9.17184 -9.1719,-22.05147 0,-12.87961 9.1719,-22.05145 9.1718,-9.17185 22.0514,-9.17185 12.8796,0 22.0514,9.17185 9.1719,9.17184 9.1719,22.05145 0,12.87963 -9.1719,22.05147 -9.1718,9.17185 -22.0514,9.17185 z m -62.4466,46.83497 v -6.24466 q 0,-6.63496 3.415,-12.19661 3.415,-5.56165 9.0743,-8.48884 12.099,-6.04951 24.5883,-9.07427 12.4894,-3.02477 25.369,-3.02477 12.8796,0 25.369,3.02477 12.4893,3.02476 24.5883,9.07427 5.6593,2.92719 9.0743,8.48884 3.415,5.56165 3.415,12.19661 v 6.24466 q 0,6.4398 -4.5859,11.02573 -4.586,4.58592 -11.0258,4.58592 h -93.6698 q -6.4398,0 -11.0258,-4.58592 -4.5859,-4.58593 -4.5859,-11.02573 z m 15.6117,0 h 93.6698 v -6.24466 q 0,-2.1466 -1.0732,-3.90292 -1.0733,-1.75631 -2.8296,-2.73204 -10.5379,-5.26893 -21.2709,-7.90339 -10.733,-2.63448 -21.6612,-2.63448 -10.9282,0 -21.6612,2.63448 -10.733,2.63446 -21.2709,7.90339 -1.7563,0.97573 -2.8296,2.73204 -1.0732,1.75632 -1.0732,3.90292 z m 46.8349,-62.44663 q 6.4399,0 11.0257,-4.58592 4.5859,-4.58593 4.5859,-11.02574 0,-6.4398 -4.5859,-11.02572 -4.5858,-4.58593 -11.0257,-4.58593 -6.4399,0 -11.0257,4.58593 -4.5859,4.58592 -4.5859,11.02572 0,6.43981 4.5859,11.02574 4.5858,4.58592 11.0257,4.58592 z m 0,-15.61166 z m 0,78.05829 z"
       id="path1-1"
       style="fill:#ffffff;fill-opacity:1;stroke-width:0.195146" /></g></svg>
