<?xml version="1.0" encoding="UTF-8" standalone="no"?>
<!-- Created with Inkscape (http://www.inkscape.org/) -->

<svg
   width="3840"
   height="2160"
   viewBox="0 0 3840 2160"
   version="1.1"
   id="svg1"
   xml:space="preserve"
   inkscape:version="1.3 (0e150ed6c4, 2023-07-21)"
   sodipodi:docname="SplashScreen.svg"
   inkscape:export-filename="SplashScreen.png"
   inkscape:export-xdpi="96"
   inkscape:export-ydpi="96"
   xmlns:inkscape="http://www.inkscape.org/namespaces/inkscape"
   xmlns:sodipodi="http://sodipodi.sourceforge.net/DTD/sodipodi-0.dtd"
   xmlns:xlink="http://www.w3.org/1999/xlink"
   xmlns="http://www.w3.org/2000/svg"
   xmlns:svg="http://www.w3.org/2000/svg"><sodipodi:namedview
     id="namedview1"
     pagecolor="#ffffff"
     bordercolor="#000000"
     borderopacity="0.25"
     inkscape:showpageshadow="2"
     inkscape:pageopacity="0.0"
     inkscape:pagecheckerboard="0"
     inkscape:deskcolor="#d1d1d1"
     inkscape:document-units="px"
     showgrid="false"
     inkscape:zoom="0.23475928"
     inkscape:cx="2151.1397"
     inkscape:cy="900.92285"
     inkscape:window-width="1920"
     inkscape:window-height="1019"
     inkscape:window-x="0"
     inkscape:window-y="0"
     inkscape:window-maximized="1"
     inkscape:current-layer="layer1"
     inkscape:export-bgcolor="#00000000"><inkscape:grid
       id="grid138"
       units="px"
       originx="0"
       originy="0"
       spacingx="1"
       spacingy="1"
       empcolor="#0099e5"
       empopacity="0.30196078"
       color="#0099e5"
       opacity="0.14901961"
       empspacing="5"
       dotted="false"
       gridanglex="30"
       gridanglez="30"
       visible="false" /></sodipodi:namedview><defs
     id="defs1"><linearGradient
       id="linearGradient8"
       inkscape:collect="always"><stop
         style="stop-color:#000848;stop-opacity:1;"
         offset="0"
         id="stop9" /><stop
         style="stop-color:#004246;stop-opacity:1;"
         offset="1"
         id="stop10" /></linearGradient><linearGradient
       inkscape:collect="always"
       xlink:href="#linearGradient8"
       id="linearGradient10"
       x1="218.80396"
       y1="188.98418"
       x2="3755.8496"
       y2="2073.9888"
       gradientUnits="userSpaceOnUse"
       spreadMethod="pad"
       gradientTransform="matrix(1.0000973,0,0,0.99901155,-0.60326351,0.00417087)" /></defs><g
     inkscape:label="Layer 1"
     inkscape:groupmode="layer"
     id="layer1"><rect
       style="font-variation-settings:'wdth' 109.9, 'wght' 700;fill:#ffffff;stroke-width:5.66929"
       id="rect1"
       width="2224.918"
       height="1747.1942"
       x="4.1456342"
       y="4.8502269"
       ry="143.42638" /><rect
       style="font-variation-settings:'wdth' 109.9, 'wght' 700;fill:url(#linearGradient10);fill-opacity:1;stroke:none;stroke-width:5.65447;stroke-dasharray:none"
       id="rect2"
       width="3840.9983"
       height="2155.6609"
       x="-0.59471303"
       y="4.2196355"
       ry="0" /><text
       xml:space="preserve"
       style="font-size:366.667px;line-height:0px;font-family:Archivo;-inkscape-font-specification:'Archivo, @wght=700,wdth=109.9';font-variation-settings:'wdth' 109.9, 'wght' 700;text-align:center;text-anchor:middle;fill:#000000;fill-opacity:1;stroke:none;stroke-width:5.657;stroke-dasharray:none"
       x="142.17705"
       y="716.14752"
       id="text136"><tspan
         sodipodi:role="line"
         id="tspan136" /></text><g
       id="g1"
       inkscape:export-filename="g1.svg"
       inkscape:export-xdpi="24.67704"
       inkscape:export-ydpi="24.67704"><text
         xml:space="preserve"
         style="font-style:normal;font-variant:normal;font-weight:normal;font-stretch:normal;font-size:366.667px;line-height:0px;font-family:Archivo;-inkscape-font-specification:'Archivo, @wght=700,wdth=109.9';font-variant-ligatures:normal;font-variant-caps:normal;font-variant-numeric:normal;font-variant-east-asian:normal;font-variation-settings:'wdth' 109.9, 'wght' 700;text-align:center;text-anchor:middle;fill:#d90baa;stroke-width:5.29565"
         x="782.32379"
         y="799.97156"
         id="text2"
         transform="scale(0.9340924,1.0705579)"><tspan
           id="tspan2"
           style="font-style:normal;font-variant:normal;font-weight:normal;font-stretch:normal;font-size:366.667px;font-family:Archivo;-inkscape-font-specification:'Archivo, @wght=700,wdth=109.9';font-variant-ligatures:normal;font-variant-caps:normal;font-variant-numeric:normal;font-variant-east-asian:normal;font-variation-settings:'wdth' 109.9, 'wght' 700;fill:#ffffff;fill-opacity:1;stroke-width:5.29565"
           x="782.32379"
           y="799.97156"
           sodipodi:role="line">Post</tspan></text><text
         xml:space="preserve"
         style="font-style:normal;font-variant:normal;font-weight:normal;font-stretch:normal;font-size:366.667px;line-height:0px;font-family:Archivo;-inkscape-font-specification:'Archivo, @wght=700,wdth=109.9';font-variant-ligatures:normal;font-variant-caps:normal;font-variant-numeric:normal;font-variant-east-asian:normal;font-variation-settings:'wdth' 109.9, 'wght' 700;text-align:center;text-anchor:middle;fill:#d90baa;stroke-width:5.29565"
         x="1309.085"
         y="1101.4674"
         id="text137"
         transform="scale(0.9340924,1.0705579)"><tspan
           id="tspan137"
           style="font-style:normal;font-variant:normal;font-weight:normal;font-stretch:normal;font-size:366.667px;font-family:Archivo;-inkscape-font-specification:'Archivo, @wght=700,wdth=109.9';font-variant-ligatures:normal;font-variant-caps:normal;font-variant-numeric:normal;font-variant-east-asian:normal;font-variation-settings:'wdth' 109.9, 'wght' 700;fill:#ffffff;fill-opacity:1;stroke-width:5.29565"
           x="1309.085"
           y="1101.4674"
           sodipodi:role="line">Creator</tspan></text></g><path
       style="fill:#f9f9f9"
       d="m 3577.2447,2060.6896 c -0.718,-0.222 -3.0087,-1.275 -5.0904,-2.34 -2.6767,-1.3694 -3.8747,-2.2942 -4.0916,-3.1584 -0.6395,-2.5478 1.7862,-4.4299 3.5309,-2.7396 1.0706,1.0372 6.1768,3.4016 8.7845,4.0676 3.3516,0.856 8.1751,0.2155 12.6367,-1.6779 2.0972,-0.89 3.9306,-1.7692 4.0742,-1.9536 0.1437,-0.1845 1.5836,-1.2327 3.1998,-2.3293 3.273,-2.2208 10.0157,-8.8114 12.5045,-12.2224 l 1.6193,-2.2195 -2.2646,-0.013 c -2.6934,-0.015 -5.4219,-0.5915 -11.4034,-2.4087 -8.7886,-2.6698 -10.7196,-3.9906 -9.4105,-6.4366 0.7212,-1.3475 2.09,-1.347 4.8663,0 1.2068,0.5864 3.0167,1.2693 4.022,1.5176 1.0052,0.2483 4.1777,1.0371 7.0499,1.7529 2.8722,0.7159 6.3212,1.4548 7.6644,1.6421 l 2.4421,0.3405 2.1352,-3.6558 c 1.1743,-2.0107 2.3665,-3.7989 2.6494,-3.9737 0.2829,-0.1749 0.5144,-0.6968 0.5144,-1.1599 0,-0.463 0.3301,-1.2129 0.7335,-1.6664 1.3424,-1.5085 4.0881,-7.4401 3.6322,-7.8462 -0.9325,-0.8306 -12.4021,-6.3686 -15.6191,-7.5416 -1.1348,-0.4137 -3.0019,-1.2208 -4.1491,-1.7936 -2.1536,-1.0751 -2.8752,-1.0443 -2.8752,0.1228 0,0.3719 -0.6199,1.3568 -1.3777,2.1886 -4.2066,4.618 -6.5608,6.9956 -6.9264,6.9956 -0.2265,0 -0.8568,0.4918 -1.4007,1.0929 -0.5439,0.601 -1.4046,1.3152 -1.9125,1.587 -2.2637,1.2115 -11.3451,4.1386 -13.7464,4.4308 -2.5325,0.3081 -2.6968,0.4269 -3.7906,2.7417 -1.3766,2.9134 -1.4235,4.819 -0.229,9.3018 0.8803,3.3036 0.8776,3.4182 -0.1,4.1329 -1.8416,1.3466 -2.8803,0.8992 -4.0529,-1.7455 -1.6454,-3.7112 -1.8653,-9.2303 -0.4915,-12.336 l 1.0873,-2.458 -1.1798,-0.4485 c -3.8552,-1.4657 -8.4217,-3.8323 -10.3076,-5.3419 -2.6567,-2.1265 -6.2276,-5.6485 -6.2276,-6.1423 0,-0.1993 -0.4131,-0.8179 -0.918,-1.3747 -3.3195,-3.6604 -3.7867,-8.0623 -0.8556,-8.0623 0.9652,0 1.6919,0.7218 3.2079,3.1865 3.6951,6.007 7.8235,9.547 14.3375,12.2943 5.0622,2.135 7.9136,2.2435 13.1236,0.4993 2.0588,-0.6892 4.3452,-1.3875 5.081,-1.5519 0.7357,-0.1643 2.0282,-0.8926 2.8722,-1.6184 0.844,-0.7258 1.7045,-1.32 1.9124,-1.3203 0.52,-9e-4 4.4756,-4.007 6.5596,-6.6434 l 1.7154,-2.17 -2.4696,-1.0925 c -1.3583,-0.6008 -3.0702,-1.2344 -3.8042,-1.4079 -0.7341,-0.1735 -2.7447,-0.9074 -4.468,-1.6309 -2.8904,-1.2133 -5.8527,-2.3215 -14.8832,-5.5675 -1.867,-0.6711 -4.7749,-1.833 -6.4622,-2.582 -1.6872,-0.749 -3.3981,-1.3619 -3.8018,-1.3619 -0.4037,0 -2.1827,-0.6097 -3.9533,-1.3549 -1.7705,-0.7452 -4.7597,-1.7712 -6.6425,-2.28 -1.8829,-0.5088 -5.0684,-1.4034 -7.0789,-1.9879 -2.0106,-0.5845 -4.8305,-1.3224 -6.2666,-1.6396 -1.4361,-0.3172 -4.8436,-1.1508 -7.5722,-1.8524 -6.3005,-1.62 -20.161,-4.3346 -24.3827,-4.7754 -1.778,-0.1856 -4.0693,-0.1806 -5.0916,0.011 l -1.8588,0.3487 v 4.6029 4.6029 l 2.7416,2.041 c 3.2926,2.4511 3.931,4.4941 1.7195,5.5017 -1.1578,0.5276 -1.575,0.451 -2.9065,-0.5334 l -1.5546,-1.1494 v 21.9488 21.9489 h -9.9222 -9.9221 v -46.4775 -46.4774 h 9.9221 9.9222 v 14.7526 14.7527 l 6.6321,0.1179 c 6.2842,0.1117 11.4329,0.8525 17.9079,2.5765 1.5798,0.4206 4.1647,0.9758 5.7444,1.2338 1.5798,0.2579 4.9872,1.0711 7.5722,1.807 2.585,0.7358 5.5225,1.4684 6.5277,1.6279 1.7585,0.279 10.5016,2.9653 15.9277,4.8938 1.4361,0.5104 3.7861,1.3428 5.2222,1.8498 1.4361,0.5071 4.2277,1.5942 6.2035,2.4159 1.9759,0.8217 3.8938,1.4939 4.2621,1.4939 0.3682,0 2.5912,0.8225 4.9398,1.8278 4.6924,2.0084 5.6877,2.2345 4.7239,1.0732 -0.8288,-0.9986 -0.5074,-2.916 0.6057,-3.6137 0.6469,-0.4054 1.4151,-0.3686 2.8061,0.1343 2.4208,0.8754 2.8119,0.3739 2.8229,-3.6202 l 0.01,-2.8931 -3.8983,-1.6763 c -2.1442,-0.922 -4.1091,-1.6763 -4.3667,-1.6763 -0.2575,0 -2.087,-0.7346 -4.0654,-1.6324 -1.9785,-0.8978 -4.6547,-1.9652 -5.9472,-2.372 -3.8991,-1.2272 -7.9669,-3.4793 -9.1074,-5.0422 -0.8317,-1.1398 -1.0759,-2.2657 -1.0759,-4.9611 v -3.4867 l -2.9955,1.4361 c -1.6476,0.7899 -3.2166,1.4362 -3.4868,1.4362 -0.2703,0 -2.272,0.8224 -4.4483,1.8277 -2.1764,1.0053 -4.1988,1.8278 -4.4944,1.8278 -0.2955,0 -1.6967,0.5875 -3.1137,1.3055 -1.417,0.7181 -3.1429,1.3056 -3.8354,1.3056 -1.4887,0 -2.5889,-1.1458 -2.3402,-2.4371 0.2327,-1.2084 3.1776,-3.1629 5.8496,-3.8824 1.1701,-0.3151 3.4778,-1.2546 5.1284,-2.0878 1.6506,-0.8332 3.2788,-1.5149 3.6183,-1.5149 0.3395,0 1.9325,-0.6267 3.5399,-1.3927 1.6074,-0.766 4.326,-1.902 6.0413,-2.5244 2.9083,-1.0553 3.1903,-1.306 4.1778,-3.7136 1.6836,-4.1047 3.3579,-6.4374 4.8882,-6.8106 0.7661,-0.1868 2.0573,-0.8914 2.8691,-1.5658 1.8384,-1.5269 2.3566,-1.526 6.8794,0.012 2.0105,0.6837 4.5955,1.5362 5.7444,1.8945 1.1489,0.3583 3.0876,1.0985 4.3083,1.6447 1.2207,0.5463 2.9832,1.1449 3.9166,1.3304 0.9335,0.1854 3.6931,1.1195 6.1325,2.0758 2.4394,0.9563 4.7353,1.7387 5.102,1.7387 0.3667,0 2.1116,0.5871 3.8776,1.3046 1.7659,0.7176 3.3033,1.2122 3.4164,1.0991 0.1131,-0.1131 -0.1647,-1.9984 -0.6172,-4.1896 -1.3355,-6.4655 -5.7023,-13.3026 -11.2688,-17.6438 -3.4522,-2.6923 -13.957,-5.6368 -20.1098,-5.6368 -9.777,0 -21.4068,6.4333 -27.3784,15.145 -1.9857,2.8968 -6.561,12.4248 -6.8957,14.3603 -0.2427,1.4029 -3.4102,1.7985 -3.9128,0.4886 -1.1263,-2.935 5.0076,-16.0229 10.2297,-21.827 1.7332,-1.9264 8.6422,-7.1915 11.0053,-8.3867 4.6851,-2.3696 8.3475,-3.387 13.384,-3.7179 5.4976,-0.3611 14.7971,0.3879 17.2485,1.3894 7.0512,2.8805 9.5845,4.1951 10.1614,5.2732 0.274,0.5118 0.8253,0.9306 1.2252,0.9306 0.3998,0 1.2175,0.6462 1.8169,1.4361 0.5995,0.7899 1.668,2.08 2.3746,2.8669 1.1518,1.2829 1.7687,2.28 4.399,7.1109 1.0036,1.8432 3.1789,10.3314 3.1789,12.4043 0,1.6192 0.1505,1.7365 4.2224,3.2915 2.3223,0.8868 4.4262,1.6123 4.6754,1.6123 0.2491,0 1.0658,0.2792 1.8148,0.6205 1.302,0.5933 3.3873,4.1753 3.3873,5.8186 0,1.562 -5.6056,19.6587 -6.3775,20.5888 -0.3014,0.3631 -1.8097,1.027 -3.3519,1.4754 -1.5421,0.4483 -2.8038,1.0227 -2.8038,1.2766 0,0.7922 -3.6873,1.1965 -5.5894,0.6128 -1.7196,-0.5278 -1.9002,-0.4593 -3.4543,1.3108 -0.9019,1.0272 -1.8798,2.2704 -2.1731,2.7627 -0.2932,0.4923 -1.2931,1.8987 -2.2218,3.1253 l -1.6887,2.2303 3.6304,1.7612 c 1.9967,0.9686 3.7966,1.7612 3.9997,1.7612 0.4583,0 7.2372,3.1686 11.3261,5.2941 1.6751,0.8707 3.1002,1.5045 3.1669,1.4083 0.5942,-0.8559 3.9707,-8.3416 3.9707,-8.803 0,-0.3291 0.8172,-3.1048 1.8159,-6.1683 3.2513,-9.9727 5.0407,-18.8776 5.8,-28.8634 1.2626,-16.604 -0.6824,-29.7581 -5.9262,-40.079 -3.2515,-6.3999 -8.5772,-9.9393 -13.4827,-8.9606 -3.4118,0.6807 -9.4834,3.25 -10.1968,4.315 -0.1748,0.2609 -0.9973,0.3968 -1.8278,0.302 -1.2157,-0.1388 -1.5427,-0.4583 -1.6782,-1.64 -0.2314,-2.0174 0.4686,-2.6891 5.2905,-5.0774 4.0829,-2.0224 4.3136,-2.0714 9.7133,-2.0653 6.092,0.01 7.8183,0.6216 11.722,4.1739 4.3434,3.9525 8.8027,15.1046 10.4681,26.1797 1.0814,7.1915 1.0918,19.7072 0.024,28.3897 -0.939,7.6329 -3.7918,20.2171 -6.0968,26.8943 -0.8428,2.4414 -1.7219,5.1958 -1.9536,6.1209 -0.2317,0.9251 -1.1526,2.9779 -2.0465,4.5618 l -1.6253,2.8798 3.0029,1.5225 c 1.6517,0.8375 3.708,2.1331 4.5696,2.8792 0.8617,0.7461 1.7006,1.3569 1.8643,1.3572 0.6188,0 3.5433,2.9525 4.8598,4.9041 1.0661,1.5802 1.3703,2.668 1.3703,4.8994 0,3.5632 -1.2274,5.7095 -4.2303,7.3972 -1.9633,1.1034 -2.8822,1.2381 -8.7729,1.2856 l -6.58,0.053 v -1.8277 -1.8278 l 5.2222,-0.2803 c 5.4281,-0.2913 9.1544,-1.5628 9.8436,-3.3587 0.8516,-2.2193 -1.7134,-6.1353 -5.2629,-8.035 -0.6077,-0.3252 -1.4316,-0.9181 -1.8311,-1.3175 -0.8259,-0.8259 -4.8095,-2.9362 -5.5428,-2.9362 -0.2667,0 -1.4579,1.8704 -2.6472,4.1564 -1.1893,2.2861 -2.3905,4.2974 -2.6693,4.4697 -0.2788,0.1723 -0.5069,0.6514 -0.5069,1.0646 0,0.4132 -0.8445,1.9268 -1.8767,3.3636 -1.8367,2.5564 -1.8506,2.6125 -0.6528,2.6203 1.8934,0.012 2.6305,0.7367 2.4408,2.3986 -0.1674,1.4659 -0.2676,1.5146 -3.4312,1.6654 -2.7371,0.1305 -3.3568,0.3394 -3.8715,1.3055 -1.0628,1.9949 -5.9607,7.8236 -9.1364,10.8727 -6.1802,5.9339 -11.5067,9.385 -18.1348,11.7497 -2.1854,0.7797 -12.1336,0.9374 -14.4259,0.2287 z m 27.8968,-65.4367 c 0.9998,-1.5079 2.547,-3.767 3.4382,-5.0203 0.8912,-1.2533 1.5443,-2.3547 1.4513,-2.4477 -0.3731,-0.3731 -5.2359,-2.3239 -5.8047,-2.3287 -0.3353,0 -1.8433,-0.5795 -3.3512,-1.2815 l -2.7416,-1.2764 v 2.0573 c 0,1.1316 -0.291,3.1454 -0.6467,4.4751 -0.772,2.8867 -2.026,3.5631 -5.881,3.1721 l -2.6111,-0.2648 3.2864,1.5087 c 1.8075,0.8298 4.1967,1.7538 5.3092,2.0534 1.1126,0.2996 2.6887,0.8919 3.5025,1.3164 0.8137,0.4244 1.6486,0.7731 1.8552,0.7749 0.2065,0 1.1936,-1.2306 2.1935,-2.7385 z m 20.7569,-12.9676 c 0.1917,-0.6945 1.2123,-3.9746 2.268,-7.2891 1.7257,-5.4175 2.4419,-9.456 1.7922,-10.1056 -0.3063,-0.3064 -10.4963,-3.8783 -13.5475,-4.7488 -1.2925,-0.3688 -3.8774,-1.2951 -5.7444,-2.0585 -1.8669,-0.7634 -4.4411,-1.6249 -5.7205,-1.9144 -1.2793,-0.2894 -3.0418,-0.8523 -3.9166,-1.2508 -3.1757,-1.4468 -5.6513,-2.3565 -6.4122,-2.3565 -0.4276,0 -2.8077,-0.7896 -5.289,-1.7546 -7.1016,-2.7619 -9.9948,-3.5256 -9.9948,-2.6385 0,0.4032 -0.8225,2.5138 -1.8277,4.6901 -1.0053,2.1763 -1.8278,4.2078 -1.8278,4.5144 0,0.3066 -0.5245,1.6076 -1.1655,2.8912 l -1.1655,2.3336 1.5571,1.2459 c 0.8565,0.6853 1.7922,1.2551 2.0794,1.2662 0.2873,0.011 1.4622,0.4744 2.6111,1.0293 1.1489,0.555 2.3817,1.017 2.7395,1.0268 0.3578,0.01 2.4312,0.8402 4.6075,1.8454 2.1764,1.0053 4.2752,1.8278 4.6641,1.8278 0.3888,0 2.4876,0.8225 4.664,1.8278 2.1763,1.0052 4.2039,1.8277 4.5056,1.8277 0.3018,0 2.2054,0.705 4.2302,1.5667 2.0249,0.8617 3.7419,1.5667 3.8156,1.5667 0.2408,0 -0.8242,-4.8604 -2.1477,-9.8012 -0.7131,-2.662 -1.2225,-5.482 -1.1322,-6.2666 0.1416,-1.2291 0.4293,-1.4486 2.0783,-1.586 2.1457,-0.1787 1.93,-0.545 3.3229,5.6427 1.7112,7.6015 3.662,14.281 4.2258,14.469 0.774,0.258 0.098,-3.8628 -1.605,-9.7818 -0.7315,-2.5424 -1.3299,-5.1959 -1.3299,-5.8965 0,-1.67 1.2287,-2.6442 2.8286,-2.2427 1.3462,0.3379 2.2052,2.4967 3.4675,8.7147 0.3161,1.5575 1.0557,4.7553 1.6434,7.1064 0.9516,3.8067 1.2472,4.3626 2.7006,5.079 2.0068,0.9891 2.5774,0.842 3.0249,-0.7798 z m -285.713,52.5476 c -13.7818,-2.6236 -23.379,-10.1878 -27.6035,-21.7562 l -1.4075,-3.8544 -0.1485,-34.0748 -0.1485,-34.0747 h 9.9209 9.921 l 0.1497,31.7366 0.1497,31.7366 1.7079,3.4684 c 2.9652,6.0216 7.94,9.1854 15.2289,9.685 8.0012,0.5484 14.7897,-2.9799 18.2113,-9.4654 l 1.4072,-2.6673 0.1458,-32.247 0.1459,-32.2469 h 10.1929 10.1929 l -0.1609,33.5525 -0.161,33.5525 -1.4189,4.1778 c -3.6261,10.6761 -12.5481,18.6615 -24.2703,21.7224 -5.3832,1.4056 -16.617,1.7902 -22.055,0.7549 z m 87.0855,0.1985 c -9.1427,-1.3412 -15.7766,-4.3298 -20.8547,-9.3951 -4.838,-4.8257 -7.0839,-9.8072 -8.053,-17.8619 l -0.3627,-3.0145 9.8392,0.1423 9.8392,0.1423 0.3843,2.2538 c 0.6917,4.0559 3.6149,7.6116 7.7671,9.4476 8.1143,3.588 20.0406,1.7664 23.9725,-3.6615 4.0771,-5.6281 1.56,-11.6866 -6.0471,-14.555 -1.6891,-0.6369 -7.4629,-2.2952 -12.8305,-3.6852 -14.4012,-3.7291 -20.193,-6.5028 -25.1944,-12.0655 -3.708,-4.1241 -4.723,-7.322 -4.7012,-14.8117 0.015,-5.2422 0.2103,-6.7525 1.1934,-9.239 3.4928,-8.8337 12.397,-15.5521 23.6869,-17.8724 5.1364,-1.0557 14.9008,-1.0698 20.1494,-0.029 6.0443,1.1983 13.0685,4.828 17.0145,8.7923 4.4591,4.4797 7.6384,11.5102 7.6384,16.8915 v 1.718 h -9.603 -9.6029 l -0.3249,-1.732 c -0.4725,-2.5183 -2.7559,-5.7585 -5.1541,-7.3135 -6.104,-3.9579 -18.9929,-2.7729 -22.8247,2.0986 -2.6545,3.3745 -2.615,7.8195 0.097,10.9083 2.4678,2.8107 5.6828,4.1437 16.7045,6.926 5.5493,1.4009 11.5631,3.1422 13.3639,3.8696 7.9982,3.2306 13.2671,7.762 16.2379,13.965 1.7239,3.5994 1.8916,4.3698 2.0703,9.5101 0.1585,4.5571 -0.01,6.2503 -0.8853,9.1388 -3.1869,10.4638 -12.1656,17.206 -25.6132,19.2331 -5.401,0.8142 -13.1288,0.9002 -17.9069,0.1993 z m -289.212,-47.4812 v -46.4774 h 10.1833 10.1833 v 46.4774 46.4775 h -10.1833 -10.1833 z m 33.422,0 v -46.4774 h 9.9222 9.9221 v 38.383 38.3831 h 19.8443 19.8443 v 8.0944 8.0944 h -29.7664 -29.7665 z m 69.4551,0 v -46.4774 h 10.1833 10.1832 v 38.383 38.3831 h 19.8443 19.8443 v 8.0944 8.0944 h -30.0275 -30.0276 z m 408.8971,-0.012 v -46.4898 l 8.9724,0.1429 8.9723,0.1429 19.8802,28.9673 19.8803,28.9674 0.1349,-29.0979 0.1349,-29.0979 h 10.1789 10.1789 v 46.4774 46.4775 h -8.8359 -8.836 l -20.0166,-28.9827 -20.0166,-28.9826 -0.135,28.9826 -0.1349,28.9827 h -10.1789 -10.1789 z m -117.7044,38.8749 c -0.6014,-1.5672 -0.3108,-2.6133 1.5123,-5.4429 1.0061,-1.5617 2.7358,-4.7262 3.8438,-7.0324 1.856,-3.8629 2.0615,-4.748 2.6104,-11.243 0.3276,-3.8774 0.5954,-8.5891 0.595,-10.4704 -8e-4,-3.6239 0.5269,-4.6739 2.3492,-4.6739 1.8238,0 2.3503,1.0491 2.3455,4.6739 -0.01,5.273 -0.9483,14.7106 -1.8593,18.6388 -1.4446,6.229 -7.5632,16.3759 -9.8747,16.3759 -0.6629,0 -1.3479,-0.3717 -1.5222,-0.826 z m 49.9567,-20.5663 c -1.2151,-0.5516 -2.5076,-1.254 -2.8722,-1.5609 -0.3646,-0.3069 -1.3092,-1.0425 -2.099,-1.6346 -1.8852,-1.4134 -1.9941,-3.9024 -0.2063,-4.7169 1.0673,-0.4863 1.602,-0.2781 4.0472,1.576 3.08,2.3355 5.182,2.9604 8.288,2.4637 2.3356,-0.3735 3.8268,0.6596 3.5654,2.47 -0.3561,2.4666 -6.5845,3.2814 -10.7231,1.4027 z m -57.5847,-2.9997 c -0.82,-0.3009 -3.0178,-1.2661 -7.8333,-3.4403 -1.5797,-0.7133 -3.6725,-1.9835 -4.6507,-2.8227 -1.4826,-1.2719 -1.7199,-1.7595 -1.4262,-2.9297 0.4929,-1.9639 2.8319,-1.8902 5.8468,0.1841 1.2695,0.8734 3.7793,2.1429 5.5774,2.8212 5.7307,2.1615 6.1415,2.4241 6.1415,3.9256 0,2.2159 -1.4075,3.0868 -3.6555,2.2618 z"
       id="path138"
       inkscape:export-filename="./path138.svg"
       inkscape:export-xdpi="96"
       inkscape:export-ydpi="96" /><rect
       style="font-variation-settings:'wdth' 109.9, 'wght' 700;fill:#f9f9f9;fill-opacity:1;stroke:none;stroke-width:5.75158;stroke-dasharray:none"
       id="rect138"
       width="2565.4656"
       height="21.803776"
       x="-0.15119456"
       y="2137.9026" /><text
       xml:space="preserve"
       style="font-style:normal;font-variant:normal;font-weight:normal;font-stretch:normal;font-size:64px;line-height:0px;font-family:Archivo;-inkscape-font-specification:'Archivo, @wght=700,wdth=109.9';font-variant-ligatures:normal;font-variant-caps:normal;font-variant-numeric:normal;font-variant-east-asian:normal;font-variation-settings:'wdth' 109.9, 'wght' 700;text-align:center;text-anchor:middle;fill:#f9f9f9;fill-opacity:1;stroke:none;stroke-width:5.657;stroke-dasharray:none"
       x="522.24628"
       y="2024.2657"
       id="text138"><tspan
         sodipodi:role="line"
         id="tspan138"
         x="522.24628"
         y="2024.2657">Loading components...</tspan></text></g></svg>
